<?xml version="1.0" encoding="UTF-8"?>
<!-- Generator: Adobe Illustrator 27.9.6, SVG Export Plug-In . SVG Version: 9.03 Build 54986)  -->
<svg version="1.1" id="Camada_2_00000105428196951804859500000003208349905257345454_" xmlns="http://www.w3.org/2000/svg" xmlns:xlink="http://www.w3.org/1999/xlink" x="0px" y="0px" viewBox="0 0 359.4 359.5" style="enable-background:new 0 0 359.4 359.5;" xml:space="preserve">
<style type="text/css">
	.st0{fill:#FF1A4F;}
	.st1{fill:#200042;}
	.st2{fill:#240144;}
	.st3{fill:#FFFFFF;}
	.st4{fill:#AB7CDD;}
</style>
<path class="st0" d="M35.9,81.7v115.1h112.9c-20.4-0.8-96.4-3.8-95-5.1c1.6-1.6,30-60,30-60l20,32.6l15.9-22.6l33.9,55.1h43.1V81.7  H35.9z M161.3,129.4c-7,0-12.7-5.7-12.7-12.7s5.7-12.7,12.7-12.7s12.7,5.7,12.7,12.7S168.3,129.4,161.3,129.4z"/>
<g id="Camada_1-2">
	<g>
		<path class="st1" d="M359.4,9c0-7.4-1.6-9-9-9c-70.2,0-140.5,0-210.7,0C95.8,0,51.9,0,8,0C2,0,0.1,2,0,7.8C0,14,0,20.3,0,26.5    C0,53,0,79.4,0.2,105.9c0,2.3,1.2,5.1,2.8,6.8c1,1.1,4.5,1.2,5.7,0.2c1.7-1.3,3.2-4,3.2-6.1C12.2,92.6,12,78.3,12,64.1    c0-1.3,0-2.6,0-4.2h5.3c103.1,0,206.1,0,309.2,0c6.1,0,9-2,8.9-6c0-4.1-2.8-6-9-6c-71.2,0-142.5,0-213.7,0h-4.7V12.2h239.4v4.7    c0,55.7,0,111.3,0,167c0,5.1,2.1,7.8,6,7.9c3.8,0,6-2.8,6-7.8c0-0.4,0-0.8,0-1.1C359.4,124.8,359.4,66.9,359.4,9L359.4,9z     M95.6,47.7H12.2V12.2h83.4V47.7L95.6,47.7z"/>
		<path class="st1" d="M195.4,71.9c-54.4,0-108.8,0-163.2,0c-6.4,0-8.2,1.8-8.2,8.2c0,38.4,0,76.9,0,115.3c0,6.4,1.9,8.2,8.2,8.2    c27.2,0,54.4,0,81.6,0c27.4,0,54.9,0,82.4,0c5.1,0,7.4-2.1,7.5-6.7c0.1-11.5,0.1-23,0-34.4c0-4.1-2.4-6.7-6-6.7    c-3.5,0-5.9,2.6-6,6.7c-0.1,8.5,0,17,0,25.5c0,1.2-0.1,2.4-0.2,3.8c-11.8,0-23.3-0.1-34.8,0.1c-2.5,0-3.7-0.8-4.8-3    c-8.6-17.3-17.3-34.6-25.9-51.9c-1.4-2.7-2.9-5.1-6.3-5c-3.3,0-4.9,2.4-6.2,5.1c-2.7,5.6-5.5,11-8.6,17.1c-1-1.7-1.6-2.9-2.2-4    c-4.4-8.7-8.5-17.5-13.2-26c-1-1.9-3.7-3.9-5.6-3.9c-1.9,0-3.9,2.4-5.7,3.8c-0.5,0.4-0.7,1.3-1,2c-10.5,21-21,41.9-31.5,62.8    c-0.6,1.2-1.8,2.5-2.9,2.8c-2.1,0.4-4.4,0.1-6.5,0.1V84.1h155.4v4.2c0,15.6,0,31.2,0,46.8c0,1.2-0.1,2.5,0.1,3.7    c0.7,3,2.7,4.8,5.8,4.8c3.1,0,5.1-1.8,5.9-4.8c0.3-1.1,0.1-2.2,0.2-3.4c0-18.5,0-36.9,0-55.4C203.7,73.7,201.8,71.9,195.4,71.9    L195.4,71.9z M112.3,166.4c2.2-4.8,4.7-9.6,7.5-15.1c6.9,13.8,13.4,26.9,20.2,40.5c-5.4,0-10.3,0.1-15.1-0.1c-0.8,0-1.9-1-2.3-1.8    c-3.5-6.7-6.9-13.5-10.2-20.3C112,168.6,111.9,167.2,112.3,166.4z M83.9,139.2c8.9,17.8,17.4,34.8,26.2,52.3H57.7    C66.4,174.1,75,157.1,83.9,139.2z"/>
		<path class="st1" d="M353.5,203.7c-3.6-0.1-6,2.6-6,7c0,1,0,2,0,3c0,43.1,0,86.1,0,129.2v4.5H12v-4.8c0-69.1,0-138.3,0-207.4    c0-1.4,0.1-2.8-0.1-4.1c-0.6-3.2-2.6-5.2-5.9-5.1s-5.3,2-5.8,5.2c-0.2,1.2-0.1,2.5-0.1,3.7c0,71.9,0,143.8,0,215.6    c0,7.4,1.6,9,9,9c79.2,0,158.4,0,237.7,0c34.9,0,69.9,0,104.8,0c5.7,0,7.9-2,7.9-7.4c0-47,0-94.1,0-141.1    C359.4,206.5,357.1,203.8,353.5,203.7L353.5,203.7z"/>
		<path class="st1" d="M318.1,79.8c-10.9-3.3-21.8,1-28,11.7c-24.6,42.1-49.1,84.2-73.5,126.3c-0.9,1.5-1.5,3.2-1.6,4.9    c-0.8,12.7-1.5,25.4-2.3,38.1c-0.2,2.9,0.4,5.5,3.1,7.1c2.7,1.5,5,0.5,7.3-1c10.3-6.8,20.6-13.6,30.9-20.4    c1.1-0.7,2.2-1.7,2.8-2.8c7.8-13.4,15.5-26.7,23.2-40.1c2.2-3.9,1.6-7.3-1.5-9.1c-3.2-1.9-6.6-0.7-9,3.3    c-6.1,10.6-12.2,21.2-18.3,31.7c-0.6,1.1-1.3,2.1-2.1,3.3c-6.9-4-13.7-7.9-20.6-11.9c20.1-34.8,39.9-69.2,59.9-103.8    c7,4.1,13.7,7.9,20.7,11.9c-0.8,1.4-1.4,2.5-2,3.6c-8.1,14.1-16.3,28.3-24.4,42.4c-2.1,3.8-1.3,7.1,2,9c3.3,1.9,6.5,0.9,8.8-2.8    c2.4-4.1,4.7-8.2,7.1-12.3c10.4-18,20.9-36,31.2-54.1C339.7,101,333,84.3,318.1,79.8L318.1,79.8z M240.8,240.9    c-5.2,3.4-10,6.6-15.5,10.2c0.4-6.6,0.8-12.2,1.1-18.5C231.4,235.5,235.9,238.1,240.8,240.9L240.8,240.9z M322.4,106.5    c-1.8,3.9-4.2,7.6-6.5,11.7c-7.1-4.1-13.8-8-20.7-12c2.3-4,4.3-7.9,6.8-11.4c3.5-5.1,10.4-6.3,15.7-3.2    C322.7,94.6,324.9,101.1,322.4,106.5L322.4,106.5z"/>
		<path class="st1" d="M29.2,251.7c-3.2,0.6-5.2,2.6-5.2,5.9c0,3.3,2,5.3,5.2,5.9c1.2,0.2,2.5,0.1,3.7,0.1c27,0,53.9,0,80.9,0    s53.9,0,80.9,0c1.2,0,2.5,0.1,3.7-0.1c3.2-0.6,5.2-2.6,5.2-5.9s-1.9-5.3-5.2-5.9c-1.1-0.2-2.2-0.1-3.4-0.1    c-54.1,0-108.3,0-162.5,0C31.5,251.6,30.3,251.5,29.2,251.7L29.2,251.7z"/>
		<path class="st1" d="M28.8,323.4c1.2,0.3,2.5,0.2,3.7,0.2c54.1,0,108.3,0,162.5,0c1,0,2,0.1,3,0c3.3-0.4,5.6-2.8,5.6-5.9    c0-3.1-2.2-5.6-5.5-6c-1.1-0.1-2.2,0-3.4,0c-26.8,0-53.6,0-80.5,0s-54.4,0-81.6,0c-1.2,0-2.5-0.1-3.7,0.1c-3,0.7-4.8,2.6-4.9,5.8    C24,320.6,25.8,322.6,28.8,323.4L28.8,323.4z"/>
		<path class="st1" d="M330.2,293.5c3.2-0.6,5.2-2.6,5.2-5.9s-2-5.3-5.2-5.9c-1.1-0.2-2.2-0.1-3.4-0.1c-17.1,0-34.2,0-51.3,0    s-34.2,0-51.3,0c-1.1,0-2.3-0.1-3.4,0.1c-3.2,0.6-5.2,2.6-5.2,5.9c0,3.3,1.9,5.3,5.2,5.9c1.1,0.2,2.2,0.1,3.4,0.1    c34.2,0,68.4,0,102.6,0C328,293.6,329.1,293.7,330.2,293.5L330.2,293.5z"/>
		<path class="st1" d="M308,24c-27.7,0-55.4,0-83.1,0c-1,0-2,0-3,0c-3.8,0.2-6.3,2.6-6.2,6.1c0.1,3.4,2.6,5.7,6.4,5.9    c0.9,0,1.8,0,2.6,0c13.9,0,27.7,0,41.5,0c9.9,0,19.7,0,29.6,0c4.7,0,9.5,0,14.2,0c4.7,0,7.4-2.3,7.4-6.1c0-3.7-2.8-5.9-7.5-5.9    C309.3,24,308.7,24,308,24L308,24z"/>
		<path class="st1" d="M155.5,233.6c13.5,0,26.9,0,40.4,0c5,0,7.8-2.3,7.7-6.1c-0.1-3.7-2.8-5.8-7.6-5.8c-26.8,0-53.7,0-80.5,0    c-5,0-7.8,2.3-7.7,6.1c0.1,3.7,2.8,5.8,7.6,5.9C128.8,233.7,142.2,233.6,155.5,233.6L155.5,233.6z"/>
		<path class="st1" d="M112.7,281.6c-13.5,0-27,0-40.4,0c-2.2,0-4.5,0-6.7,0c-11.6,0-23.2,0-34.8,0c-3.1,0-5.8,1.1-6.2,4.2    c-0.3,2,0.5,4.7,1.9,6.2c1,1.2,3.6,1.5,5.5,1.5c18.7,0.1,37.4,0.1,56.2,0.1c8.4,0,16.7,0,25.1,0c4.2,0,6.9-2.7,6.7-6.3    C119.6,283.7,117,281.6,112.7,281.6L112.7,281.6z"/>
		<path class="st1" d="M143.8,113.8c0.1,10,8.2,18,18.2,17.9c9.8-0.1,17.8-8.2,17.7-18c0-9.9-8.2-18-18.2-17.9    C151.8,95.9,143.7,104.1,143.8,113.8L143.8,113.8z M167.7,113.9c-0.1,3.2-2.8,5.9-6,5.8c-3.2,0-5.9-2.7-5.9-5.9    c0-3.4,2.8-6.2,6.2-6C165.2,108,167.8,110.7,167.7,113.9L167.7,113.9z"/>
		<path class="st1" d="M196.2,281.6c-19,0-37.9,0-56.9,0c-4.7,0-7.5,2.2-7.4,6c0,3.7,2.7,6,7.5,6c9.4,0,18.7,0,28.1,0s19.2,0,28.8,0    c4.7,0,7.5-2.3,7.5-6C203.7,283.8,200.9,281.6,196.2,281.6L196.2,281.6z"/>
		<path class="st1" d="M133.2,24c-4.6,0-7.4,2.4-7.3,6.1c0.1,3.6,2.7,5.8,7.2,5.9c8.5,0,17,0,25.4,0c8.6,0,17.2,0,25.8,0    c4.6,0,7.4-2.4,7.3-6.1c-0.1-3.6-2.8-5.8-7.2-5.8C167.4,23.9,150.3,24,133.2,24L133.2,24z"/>
		<path class="st1" d="M287.6,311.5c-5.6,0-11.2,0-16.8,0c-4.4,0-7.1,2.3-7.1,6c0,3.6,2.6,6,7.1,6c11.2,0,22.5,0,33.7,0    c4.4,0,7.1-2.3,7.1-6c0-3.6-2.7-6-7.1-6C298.8,311.5,293.2,311.5,287.6,311.5L287.6,311.5z"/>
		<path class="st1" d="M233.8,311.5c-3.9,0-7.7-0.1-11.6,0c-3.9,0.1-6.4,2.4-6.5,5.8c-0.1,3.5,2.5,6.1,6.5,6.1    c7.6,0.1,15.2,0.1,22.8,0c3.9,0,6.4-2.4,6.5-5.8c0.1-3.5-2.5-6-6.5-6.1C241.3,311.5,237.6,311.5,233.8,311.5L233.8,311.5z"/>
		<path class="st1" d="M29.8,35.9c3.2,0.1,6-2.5,6.1-5.8s-2.5-6-5.8-6.1c-3.2-0.1-6,2.5-6.1,5.8C23.9,33,26.6,35.8,29.8,35.9    L29.8,35.9z"/>
		<path class="st1" d="M54,35.9c3.2,0,6-2.8,5.9-6c0-3.2-2.8-6-6-5.9c-3.3,0-5.9,2.7-5.9,6S50.7,35.9,54,35.9z"/>
		<path class="st1" d="M77.6,35.9c3.2,0.2,6.1-2.4,6.2-5.7c0.2-3.2-2.4-6.1-5.7-6.2c-3.2-0.2-6.1,2.4-6.2,5.7    C71.8,32.9,74.3,35.8,77.6,35.9L77.6,35.9z"/>
	</g>
</g>
<rect x="146.3" y="-235.4" class="st2" width="173.6" height="138.9"/>
<g>
	<g>
		
			<ellipse transform="matrix(0.1523 -0.9883 0.9883 0.1523 314.7497 30.7959)" class="st0" cx="175.3" cy="-168.1" rx="4.9" ry="4.9"/>
		<path class="st0" d="M186.1-168.1c0-1.3-0.2-2.5-0.7-3.7c0,0,0,0,0-0.1c0-0.1-0.1-0.2-0.1-0.3c-0.1-0.3-0.6-0.5-0.9-0.3    c0,0,0,0,0,0c-0.2,0.2-0.3,0.5-0.2,0.7c0,0,0,0,0,0.1c0,0,0,0,0,0c0.4,1.1,0.7,2.3,0.7,3.5c0,1.9-0.6,3.6-1.5,5.1    c-0.3-0.1-0.7-0.2-1.1-0.2c-1.1,0.1-1.9,0.9-2,2c-0.1,1.4,1,2.6,2.4,2.4c1.1-0.1,1.9-1,2-2c0-0.5-0.1-1.1-0.4-1.5    C185.4-163.9,186.1-165.9,186.1-168.1z M183.5-160.7c-0.1,0.4-0.4,0.7-0.8,0.8c-0.7,0.1-1.3-0.5-1.2-1.2c0.1-0.4,0.4-0.7,0.8-0.8    C183-162,183.6-161.4,183.5-160.7z"/>
		<path class="st0" d="M175.3-157.4c1.3,0,2.5-0.2,3.7-0.7c0,0,0,0,0.1,0c0.1,0,0.2-0.1,0.3-0.1c0.3-0.1,0.5-0.6,0.3-0.9    c0,0,0,0,0,0c-0.2-0.2-0.5-0.3-0.7-0.2c0,0,0,0-0.1,0c0,0,0,0,0,0c-1.1,0.4-2.3,0.7-3.5,0.7c-1.9,0-3.7-0.5-5.1-1.5    c0.1-0.3,0.2-0.7,0.2-1.1c-0.1-1.1-0.9-1.9-2-2c-1.4-0.1-2.6,1-2.4,2.4c0.1,1.1,1,1.9,2,2c0.6,0,1.1-0.1,1.5-0.4    C171.1-158,173.2-157.3,175.3-157.4z M168-159.9c-0.4-0.1-0.7-0.4-0.8-0.8c-0.1-0.7,0.5-1.3,1.2-1.2c0.4,0.1,0.7,0.4,0.8,0.8    C169.3-160.4,168.7-159.8,168-159.9z"/>
		<path class="st0" d="M164.6-168.2c0,1.3,0.2,2.5,0.7,3.7c0,0,0,0,0,0.1c0,0.1,0.1,0.2,0.1,0.3c0.1,0.3,0.6,0.5,0.9,0.3    c0,0,0,0,0,0c0.2-0.2,0.3-0.5,0.2-0.7c0,0,0,0,0-0.1c0,0,0,0,0,0c-0.4-1.1-0.7-2.3-0.7-3.5c0-1.9,0.5-3.7,1.5-5.1    c0.3,0.1,0.7,0.2,1.1,0.2c1.1-0.1,1.9-0.9,2-2c0.1-1.4-1-2.6-2.4-2.4c-1.1,0.1-1.9,1-2,2c0,0.6,0.1,1.1,0.4,1.5    C165.3-172.4,164.6-170.4,164.6-168.2z M167.2-175.6c0.1-0.4,0.4-0.7,0.8-0.8c0.7-0.1,1.3,0.5,1.2,1.2c-0.1,0.4-0.4,0.7-0.8,0.8    C167.7-174.3,167.1-174.9,167.2-175.6z"/>
		<path class="st0" d="M175.2-178.9c-1.3,0-2.5,0.3-3.7,0.7c0,0,0,0-0.1,0c-0.1,0-0.2,0.1-0.3,0.1c-0.3,0.1-0.5,0.6-0.3,0.9    c0,0,0,0,0,0c0.2,0.2,0.5,0.3,0.7,0.2c0,0,0,0,0.1,0c0,0,0,0,0,0c1.1-0.5,2.3-0.7,3.5-0.7c1.9,0,3.7,0.5,5.2,1.4    c-0.1,0.3-0.2,0.7-0.2,1.1c0.1,1.1,1,1.9,2,2c1.4,0.1,2.6-1.1,2.4-2.5c-0.1-1-1-1.9-2-2c-0.6,0-1.1,0.1-1.5,0.4    C179.5-178.3,177.4-178.9,175.2-178.9z M182.7-176.4c0.4,0.1,0.7,0.4,0.8,0.8c0.1,0.7-0.5,1.3-1.2,1.2c-0.4-0.1-0.7-0.4-0.8-0.8    C181.3-175.9,181.9-176.5,182.7-176.4z"/>
	</g>
	<g>
		<g>
			<path class="st3" d="M219.6-169.4c-3.2,0.4-5.9,0.8-5.9,4.6c0,2.3,1.6,3.6,4.3,3.6c1.3,0,2.4-0.3,3.3-1c0.1-0.1,0.2-0.1,0.3,0     c0.1,0,0.2,0.1,0.2,0.2l0,0c0.1,0.3,0.3,0.4,0.5,0.4h2.3c0.3,0,0.5-0.2,0.5-0.5v-7.6c0-3.5-1.7-5.1-5.5-5.1     c-3.5,0-5.4,1.4-5.6,4.1c0,0.1,0,0.3,0.1,0.4c0.1,0.1,0.3,0.2,0.4,0.2h2.3c0.3,0,0.5-0.2,0.5-0.4c0.2-1,0.9-1.5,2.1-1.5     c1.3,0,2,0.5,2,1.2C221.7-170,221.4-169.6,219.6-169.4z M217.3-165.1c0-0.9,0.4-1.5,2.4-1.9c0.8-0.1,1.2-0.3,1.6-0.4     c0,0,0.1,0,0.1,0c0.1,0,0.1,0,0.2,0.1c0.1,0.1,0.1,0.2,0.1,0.3l0,0.6c0,1.5-1.3,2.6-2.9,2.6C217.8-163.8,217.3-164.2,217.3-165.1     z M222-162C222-162,222-162,222-162L222-162L222-162z"/>
		</g>
		<g>
			<path class="st3" d="M227.1-161.5h2.5c0.3,0,0.5-0.2,0.5-0.5v-16.4c0-0.3-0.2-0.5-0.5-0.5h-2.5c-0.3,0-0.5,0.2-0.5,0.5v16.4     C226.5-161.8,226.8-161.5,227.1-161.5z"/>
		</g>
		<g>
			<path class="st3" d="M236.9-169.4c-3.2,0.4-5.9,0.8-5.9,4.6c0,2.3,1.6,3.6,4.3,3.6c1.3,0,2.4-0.3,3.3-1c0.1-0.1,0.2-0.1,0.3,0     c0.1,0,0.2,0.1,0.2,0.2l0,0c0.1,0.3,0.3,0.4,0.5,0.4h2.3c0.3,0,0.5-0.2,0.5-0.5v-7.6c0-3.5-1.7-5.1-5.5-5.1     c-3.5,0-5.4,1.4-5.6,4.1c0,0.1,0,0.3,0.1,0.4c0.1,0.1,0.3,0.2,0.4,0.2h2.3c0.3,0,0.5-0.2,0.5-0.4c0.2-1,0.9-1.5,2.1-1.5     c1.3,0,2,0.5,2,1.2C238.9-170,238.6-169.6,236.9-169.4z M234.5-165.1c0-0.9,0.4-1.5,2.4-1.9c0.8-0.1,1.2-0.3,1.6-0.4     c0,0,0.1,0,0.1,0c0.1,0,0.1,0,0.2,0.1c0.1,0.1,0.1,0.2,0.1,0.3l0,0.6c0,1.5-1.3,2.6-2.9,2.6C235-163.8,234.5-164.2,234.5-165.1z      M239.2-162C239.2-162,239.2-162,239.2-162L239.2-162L239.2-162z"/>
		</g>
		<g>
			<path class="st3" d="M250.9-174.7c-1.3,0-2.3,0.4-3.2,1.2c-0.1,0.1-0.2,0.1-0.3,0.1c-0.1,0-0.2-0.1-0.2-0.3v-4.8     c0-0.3-0.2-0.5-0.5-0.5h-2.5c-0.3,0-0.5,0.2-0.5,0.5v16.5c0,0.3,0.2,0.5,0.5,0.5h2.4c0.3,0,0.5-0.2,0.5-0.5l0-0.1     c0-0.1,0.1-0.2,0.2-0.3c0.1,0,0.2,0,0.3,0.1c0.7,0.7,1.7,1.1,2.9,1.1c3.4,0,5.6-2.7,5.6-6.9C256.2-172.1,254.1-174.7,250.9-174.7     z M252.6-167.9c0,2.2-1.1,3.7-2.7,3.7c-1.6,0-2.7-1.5-2.7-3.5c0-2.7,0.9-4,2.7-4C251.7-171.7,252.6-170.4,252.6-167.9z"/>
		</g>
		<g>
			<path class="st3" d="M263-174.7c-3.5,0-5.4,1.4-5.6,4.1c0,0.1,0,0.3,0.1,0.4c0.1,0.1,0.2,0.2,0.4,0.2h2.4c0.2,0,0.4-0.2,0.5-0.4     c0.2-1,0.9-1.5,2.1-1.5c1.3,0,2,0.5,2,1.2c0,0.7-0.3,1.1-2,1.3c-3.2,0.4-5.9,0.8-5.9,4.6c0,2.3,1.6,3.6,4.3,3.6     c1.3,0,2.5-0.4,3.4-1c0.1-0.1,0.2-0.1,0.3,0c0.1,0,0.2,0.1,0.2,0.2c0,0,0,0.1,0,0.1c0.1,0.2,0.3,0.4,0.5,0.4h2.4     c0.3,0,0.5-0.2,0.5-0.5v-7.6C268.5-173.2,266.8-174.7,263-174.7z M264.9-167.1l0,0.7c0,1.5-1.3,2.6-2.9,2.6c-1,0-1.5-0.4-1.5-1.3     c0-0.9,0.4-1.5,2.4-1.9c0.8-0.2,1.3-0.3,1.6-0.4c0,0,0.1,0,0.1,0c0.1,0,0.1,0,0.2,0.1C264.9-167.3,264.9-167.2,264.9-167.1z"/>
		</g>
		<g>
			<path class="st3" d="M277.3-171.7v-2.6c0-0.3-0.2-0.5-0.5-0.5h0c-1.1,0-2.2,0.1-3.1,1c-0.1,0.1-0.2,0.1-0.3,0.1     c-0.1,0-0.2-0.1-0.2-0.3c0-0.3-0.2-0.5-0.5-0.5h-2.3c-0.3,0-0.5,0.2-0.5,0.5v11.9c0,0.3,0.2,0.5,0.5,0.5h2.5     c0.3,0,0.5-0.2,0.5-0.5v-6.2c0-2,1-3,3-3c0.2,0,0.3,0,0.5,0c0.1,0,0.3,0,0.4-0.1C277.2-171.4,277.3-171.5,277.3-171.7z"/>
		</g>
		<g>
			<path class="st3" d="M283.2-174.7c-3.8,0-6.2,2.5-6.2,6.5c0,4.6,2.2,7,6.4,7c2.6,0,4.6-1.3,5.5-3.6c0.1-0.2,0-0.3-0.1-0.5     c-0.1-0.1-0.3-0.2-0.4-0.2h-2.6c-0.2,0-0.4,0.1-0.5,0.3c-0.3,0.7-1.1,1.1-2.1,1.1c-1.4,0-2.4-1-2.7-2.6c0-0.1,0-0.2,0.1-0.2     c0.1-0.1,0.1-0.1,0.2-0.1h7.9c0.1,0,0.3-0.1,0.4-0.2c0.1-0.1,0.1-0.2,0.1-0.4C289.1-172.2,287-174.7,283.2-174.7z M285.4-169.4     c-0.1,0.1-0.1,0.1-0.2,0.1h-4.3c-0.1,0-0.2,0-0.2-0.1c-0.1-0.1-0.1-0.2-0.1-0.2c0.3-1.3,1.2-2.2,2.4-2.2c1,0,2.2,0.6,2.5,2.2     C285.5-169.5,285.5-169.5,285.4-169.4z"/>
		</g>
		<g>
			<path class="st3" d="M299.4-168.7c-0.6-0.3-1.5-0.5-2.3-0.7c-0.5-0.1-1-0.2-1.5-0.4c-1.4-0.4-2-0.7-2-1.3c0-0.6,0.6-0.9,1.9-0.9     c1.4,0,2,0.4,2.2,1.3c0.1,0.2,0.3,0.4,0.5,0.4h2.4c0.1,0,0.3-0.1,0.4-0.2c0.1-0.1,0.1-0.3,0.1-0.4c-0.3-2.6-2.2-3.8-5.5-3.8     c-2,0-5.4,0.5-5.4,3.9c0,1.3,0.5,2.2,1.6,2.9c0.9,0.6,2.2,1,4.2,1.5c1.1,0.3,1.9,0.5,1.9,1.3c0,1.1-1.5,1.2-2.1,1.2     c-1.4,0-2.3-0.5-2.5-1.5c0-0.2-0.2-0.4-0.5-0.4h-2.7c-0.1,0-0.3,0.1-0.4,0.2c-0.1,0.1-0.1,0.2-0.1,0.4c0.3,2.5,2.6,4.1,6.2,4.1     c3.6,0,5.6-1.6,5.6-4.3C301.5-167.1,300.9-168,299.4-168.7z"/>
		</g>
	</g>
	<g>
		<path class="st4" d="M198.9-157v4.1h-0.5v-3.1l-1.4,3.1h-0.4l-1.4-3.1v3.1h-0.5v-4.1h0.6l1.5,3.4l1.5-3.4H198.9z"/>
		<path class="st4" d="M203.3-152.9l-1.7-1.9v1.9H201v-4.1h0.5v1.9l1.7-1.9h0.7l-1.9,2.1l1.9,2.1H203.3z"/>
		<path class="st4" d="M208.3-157v0.4h-1.1v3.7h-0.5v-3.7h-1.1v-0.4H208.3z"/>
		<path class="st4" d="M213.1-154.4c-0.1-0.1-0.2-0.3-0.2-0.5c0-0.2,0.1-0.4,0.2-0.5c0.1-0.1,0.3-0.2,0.5-0.2c0.2,0,0.4,0.1,0.5,0.2    c0.1,0.1,0.2,0.3,0.2,0.5c0,0.2-0.1,0.4-0.2,0.5c-0.1,0.1-0.3,0.2-0.5,0.2C213.5-154.2,213.3-154.2,213.1-154.4z"/>
		<path class="st4" d="M221.8-157v0.4h-1.1v3.7h-0.5v-3.7H219v-0.4H221.8z"/>
		<path class="st4" d="M224.2-156.6v1.4h1.5v0.4h-1.5v1.4h1.7v0.4h-2.2v-4.1h2.2v0.4H224.2z"/>
		<path class="st4" d="M228-156.1c0.2-0.3,0.4-0.6,0.7-0.8c0.3-0.2,0.7-0.3,1-0.3c0.4,0,0.8,0.1,1.2,0.3c0.3,0.2,0.6,0.5,0.7,0.9    H231c-0.1-0.2-0.3-0.4-0.5-0.6c-0.2-0.1-0.5-0.2-0.8-0.2c-0.3,0-0.5,0.1-0.8,0.2c-0.2,0.1-0.4,0.3-0.5,0.6    c-0.1,0.2-0.2,0.5-0.2,0.9c0,0.3,0.1,0.6,0.2,0.9c0.1,0.2,0.3,0.4,0.5,0.6c0.2,0.1,0.5,0.2,0.8,0.2c0.3,0,0.6-0.1,0.8-0.2    c0.2-0.1,0.4-0.3,0.5-0.6h0.6c-0.2,0.4-0.4,0.7-0.7,0.9c-0.3,0.2-0.7,0.3-1.2,0.3c-0.4,0-0.7-0.1-1-0.3c-0.3-0.2-0.6-0.4-0.7-0.7    c-0.2-0.3-0.3-0.7-0.3-1.1C227.7-155.4,227.8-155.7,228-156.1z"/>
	</g>
	<g>
		<path class="st3" d="M209.5-169.3v7.2c0,0.3,0.2,0.5,0.5,0.5h2.4c0.3,0,0.5-0.2,0.5-0.5v-8.3c0-2.5-1.9-4.3-4.4-4.3    c-1.4,0-2.5,0.5-3.2,1.5c-0.1,0.1-0.2,0.1-0.3,0.1c0,0,0,0,0,0c-0.1,0-0.2,0-0.3-0.1c-0.9-1.1-1.7-1.5-3.2-1.5    c-1.4,0-2.3,0.3-3,1.1c-0.1,0.1-0.3,0.1-0.4,0.1c-0.1,0-0.2-0.1-0.2-0.3c0-0.3-0.2-0.5-0.5-0.5h-2.3c-0.3,0-0.5,0.2-0.5,0.5v11.8    c0,0.3,0.2,0.5,0.5,0.5h2.5c0.3,0,0.5-0.2,0.5-0.5v-7.2c0-1.6,0.6-2.4,1.9-2.4c1.3,0,1.9,0.4,1.9,2.4v7.2c0,0.3,0.2,0.5,0.5,0.5    h2.5c0.3,0,0.5-0.2,0.5-0.5v-7.1c0-1.5,0.9-2.6,2-2.6C208.7-171.8,209.5-170.8,209.5-169.3z"/>
	</g>
</g>
</svg>