<?xml version="1.0" encoding="UTF-8"?>
<!-- Generator: Adobe Illustrator 27.9.6, SVG Export Plug-In . SVG Version: 9.03 Build 54986)  -->
<svg version="1.1" id="Camada_2_00000113341919514722549470000013855612608869350285_" xmlns="http://www.w3.org/2000/svg" xmlns:xlink="http://www.w3.org/1999/xlink" x="0px" y="0px" viewBox="0 0 359.4 359.4" style="enable-background:new 0 0 359.4 359.4;" xml:space="preserve">
<style type="text/css">
	.st0{fill:#FF1A4F;}
	.st1{fill:#200042;}
</style>
<circle class="st0" cx="249" cy="77.9" r="21.4"/>
<polygon class="st0" points="209.7,137.5 213.8,107.8 221.9,101.3 268.7,103.9 277.4,107.8 281.5,113.8 283.6,137.5 "/>
<g id="Camada_1-2">
	<g>
		<path class="st1" d="M353.4,251.6c-3.6,0-6,2.6-6,7c0,7,0,14,0,21c0,12.7-7.3,19.9-20,19.9c-66.5,0-133,0-199.5,0    c-12.9,0-20.1-7.2-20.1-20.2c0-38.4,0-76.9,0-115.3c0-13,7.2-20.2,20.1-20.2c66.5,0,133,0,199.5,0c12.8,0,20,7.2,20,19.9    c0,22.8,0,45.7,0,68.5c0,4.7,2.3,7.4,6,7.4c3.6,0,5.9-2.7,5.9-7.1c0-23.7,0.1-47.4,0-71.1c-0.1-13-8.4-24.1-20.8-28.1    c-1-0.3-2-0.7-3.1-1v-4.4c0-28.1,0-56.2,0-84.2c0-12.2-7.4-19.6-19.5-19.6c-46.9,0-93.8,0-140.7,0c-11.9,0-19.4,7.4-19.4,19.4    c0,16.9,0,33.7,0,50.5c0,0.9-0.1,1.8,0.1,2.6c0.6,3.2,2.5,5.2,5.8,5.2c3.3,0,5.3-1.9,6-5.1c0.2-1.1,0.1-2.2,0.1-3.4    c0-16.2,0-32.4,0-48.7c0-6.9,1.7-8.7,8.5-8.7c46.2,0,92.3,0,138.5,0c6.9,0,8.7,1.7,8.7,8.5c0,27.7,0,55.4,0,83.1v3.9h-36    c0-6.1,0.1-12,0-17.9c-0.1-8-5.3-14.8-12.8-17c-1.5-0.4-3-0.7-4.6-1.1c8.5-16.2,6.5-30.9-5.4-40.8c-10.9-9-26.5-9.2-37.7-0.4    c-12.3,9.6-14.4,24-6,41c-13.3,3.4-17.3,8.6-17.3,22.4c0,4.6,0,9.1,0,13.6h-35.9c0-1.9,0-3.5,0-5.2c-0.1-10.8-7.7-18.4-18.4-18.5    c-4,0-8-0.1-12,0c-9.6,0.3-17.2,7.8-17.5,17.5c-0.1,2.3,0,4.7,0,7c-0.3-0.3-0.7-0.6-1-0.9c-4.8,3.1-10.2,5.4-14.1,9.4    c-3.9,4-6.4,9.5-9.7,14.7H83.9c0-11.6-0.1-22.9,0.1-34.2c0-1.1,1.1-2.4,2-3.2c6.3-6,9.8-13.2,9.8-21.9c0.1-22.2,0.2-44.4,0-66.6    C95.6,13,82.2-0.1,65.7,0C49.5,0.1,36.1,13.1,36,29.5c-0.2,22.2-0.1,44.4,0,66.6c0,6.7,1.5,13.4,6.4,17.8c5.5,5,6,10.6,5.5,17    c-0.1,1.9,0,3.7,0,5.6c0.1,4.4,2.3,7.1,5.9,7.1c3.6,0,6-2.6,6-7c0-3.7,0-7.4,0-11.1h11.8v30.2c-1.4,0-2.6,0-3.8,0    c-8.7,0-17.5-0.1-26.2,0c-9.8,0.2-17.6,8.1-17.7,17.7c-0.1,9.8,7.6,17.9,17.6,18.2c2.1,0.1,4.1,0,6.4,0c0,2.4,0,4.3,0,6.1    c0.2,5.7,2.1,11,7,13.7c4.7,2.6,5.4,6,5,10.5c-0.2,1.5,0,3,0,4.5c-0.1,8.2-4.9,13-13.1,13c-9.5,0-19,0-28.5,0    c-4.6,0-8.6,1.4-12,4.3c-5.7,4.9-7.8,12.7-5.3,19.7c2.5,7.1,9.2,11.9,17,11.9c24.6,0.1,49.2,0,73.7,0c1.3,0,2.6,0,4.1,0    c0,1.7,0,2.8,0,3.9c0.1,19.5,12.6,32,32.1,32c13.8,0,27.7,0,41.5,0h4.3c-0.4,7.2,0.1,13.6,5.3,18.8c5.2,5.1,11.7,5.4,18.6,5.2    c0,6.2,0,11.9,0,17.6c0,3.1,1.6,5.7,4.5,6c2.1,0.1,4.6-1.2,6.4-2.6c1-0.8,1-3,1-4.5c0.1-5.4,0-10.9,0-16.4h35.9c0,6,0,11.6,0,17.2    c0,3.3,1.3,5.6,4.5,6.6c3.9,1.2,7.4-1.8,7.5-6.4c0.1-5.7,0-11.4,0-17.3c2.2,0,4,0.1,5.7,0c3.8-0.2,6.3-2.7,6.2-6.1    c0-3.4-2.6-5.7-6.4-5.9c-0.9,0-1.8,0-2.6,0c-12.4,0-24.7,0-37.1,0c-9.9,0-19.7,0-29.6,0c-6.3,0-8.2-1.9-8.1-8.3c0-1.1,0-2.2,0-3.6    h4.7c46,0,92.1,0,138.1,0c17.8,0,30.7-12.9,30.9-30.6c0-7.4,0-14.7,0-22.1C359.3,254.3,357,251.6,353.4,251.6L353.4,251.6z     M245.8,59.9c9.8,0.1,17.8,8.2,17.8,17.9c0,9.9-8.1,18-18.1,18c-9.7,0-17.8-8.2-17.8-17.9C227.7,67.9,235.8,59.8,245.8,59.9    L245.8,59.9z M215.8,113c0.2-3.2,2.6-5.1,5.9-5.2c15.9-0.1,31.9-0.1,47.8,0c3.6,0,5.9,2.3,6,5.9c0.1,5.8,0,11.7,0,17.9h-59.8    C215.7,125.4,215.5,119.2,215.8,113L215.8,113z M131.8,125.5c0.3-3.4,2.3-5.5,5.8-5.7c4.1-0.2,8.2-0.2,12.3,0    c3.4,0.2,5.4,2.3,5.8,5.7c0.2,1.9,0,3.9,0,6.2c-7.1,0-13.9,0-20.7,0c-1,0-1.9-0.1-3.2-0.1C131.8,129.4,131.7,127.5,131.8,125.5    L131.8,125.5z M66.8,113.8C56.5,114.2,47.8,106,48.2,96c4.7-0.6,11.1,1.4,11.6-6.4c0.3-4.1-2.5-5.4-11.9-5.9V72.1    c4.8-0.8,11.8,1.4,11.8-6.3c-0.1-7.5-6.8-5.5-11.5-6.1V47.9c1.8,0,3.6,0.1,5.4,0c3.8-0.2,6.4-2.5,6.4-5.9c0-3.4-2.5-5.8-6.3-6    c-1.7-0.1-3.5,0-5.4,0c-1.1-8.4,0.2-15.7,7.4-20.7c6.3-4.4,13.1-4.6,19.7-0.5c7.8,4.8,9.2,12.4,8.3,21.1    c-4.8,0.5-11.2-1.5-11.7,6.3c-0.2,4.1,2.5,5.4,11.7,5.9v11.6C79.1,60.4,72,58.2,72.1,66c0.1,7.5,6.8,5.5,11.6,6.1v11.8    c-1.9,0-3.8-0.1-5.7,0c-3.6,0.2-6,2.6-6,5.9c0,3.3,2.4,5.8,5.9,6c1.8,0.1,3.7,0,5.5,0C84.5,104.7,76.3,113.4,66.8,113.8    L66.8,113.8z M59.9,191.9h11.9c-0.1,3.9,1.4,8.1-2.6,10.5c-1.7,1-4.8,1-6.5,0.1C58.5,200.1,60.2,195.8,59.9,191.9z M95.7,263.3    c-0.9,0.1-1.8,0.3-2.8,0.3c-24.4,0-48.9,0-73.3,0c-4.8,0-7.5-2.2-7.5-5.9c-0.1-3.8,2.7-6,7.4-6.1c8.7,0,17.5,0,26.2,0    c16.5,0,26.3-9.8,26.3-26.3c0-1.1,0.1-2.2,0-3.4c-0.3-4.3-0.1-7.7,4.8-10.3c4.9-2.6,6.9-7.9,7.2-13.6c0.1-2,0-3.9,0-6.2h11.8    C95.7,191.9,95.7,263.3,95.7,263.3z M95.7,179.5c-0.8,0.1-1.6,0.2-2.3,0.2c-16.7,0-33.4,0-50.1,0c-0.5,0-1,0-1.5,0    c-3.5-0.3-5.9-2.8-5.9-6c0-3.3,2.4-5.9,6-5.9c17.8-0.1,35.6,0,53.7,0C95.7,167.7,95.7,179.5,95.7,179.5z"/>
		<path class="st1" d="M188.8,191.9c-3.2-1.4-6.3-0.1-8.3,3.6c-6.7,12.4-8.4,25.4-5.2,39.1c6,25.4,30.9,43.3,56.6,40.8    c27.2-2.6,48.3-24.2,49.5-50.8c1.4-29.3-19.9-53.9-49.2-56.7c-11.1-1.1-21.6,1.3-31.3,6.9c-2.4,1.4-4.1,3.4-3.2,6.1    c0.6,1.9,2.2,4.2,3.9,4.7c1.9,0.6,4.6-0.2,6.6-1.2c28.1-14.7,61.6,5.5,61.8,37.2c-0.4,3.1-0.6,6.2-1.2,9.2    c-4.1,19.4-23,33.8-42.7,32.6c-21-1.3-37.7-17.1-39.8-37.4c-0.9-8.8,0.9-17.1,5-24.9C193.4,197.1,192.3,193.4,188.8,191.9    L188.8,191.9z"/>
		<path class="st1" d="M227.6,251.6c16.4,0.1,29.9-13.3,30-29.6c0.1-16.6-13.2-30.2-29.7-30.3c-16.4-0.1-30,13.2-30.2,29.4    C197.5,237.9,210.9,251.5,227.6,251.6L227.6,251.6z M227.4,203.7c10,0,18.1,8,18.1,18c0,9.8-8,17.9-17.8,17.9    c-9.9,0.1-18.1-8-18.1-18C209.6,211.9,217.7,203.7,227.4,203.7z"/>
		<path class="st1" d="M328.3,155.8c-5.6-0.1-11.2,0-16.8,0s-11.2,0-16.8,0c-4.9,0.1-7,2.2-7.1,7.1c0,7.2,0,14.5,0,21.7    c0,4.9,2.2,7.1,7.1,7.1c11.2,0,22.5,0.1,33.7,0c4.9,0,7-2.2,7.1-7.1c0-7.2,0-14.5,0-21.7C335.4,157.9,333.2,155.8,328.3,155.8    L328.3,155.8z M323.3,179.5h-23.6V168h23.6V179.5z"/>
	</g>
</g>
</svg>