<?xml version="1.0" encoding="UTF-8"?>
<!-- Generator: Adobe Illustrator 27.9.6, SVG Export Plug-In . SVG Version: 9.03 Build 54986)  -->
<svg version="1.1" id="Camada_2_00000050658558847556707630000013114260360748386440_" xmlns="http://www.w3.org/2000/svg" xmlns:xlink="http://www.w3.org/1999/xlink" x="0px" y="0px" viewBox="0 0 299.5 359.4" style="enable-background:new 0 0 299.5 359.4;" xml:space="preserve">
<style type="text/css">
	.st0{fill:#FF1A4F;}
	.st1{fill:#200042;}
</style>
<circle class="st0" cx="156.6" cy="89.9" r="65.7"/>
<g id="Camada_1-2">
	<g>
		<path class="st1" d="M284.9,107.8c-0.2-0.1-0.2-0.4-0.4-0.6c4.9-11.6,3.2-21.8-4.9-29.1c-7.7-7-18.8-8.3-27.8-3.2    c-5.7,3.2-9.4,8-11.3,14.3c-1.9,6.3-0.6,12.4,2.1,18.4h-17.1c6.5-34.4-3.9-61.9-34-79.8c-25.3-15-51.7-13.9-75.9,2.7    c-27,18.5-35.8,45.1-29.7,77.3h-4c-20.7,0-41.4,0-62.1,0C7.3,107.8,0,115.1,0,127.6c0,50.7,0,101.3,0,152c0,12.7,7.2,20,20,20    c22.1,0,44.2,0,66.2,0h4.4c-3.1,4.7-5.7,8.6-8.4,12.5c-2.5,3.7-4.3,8.9-7.8,10.7c-3.6,1.9-9,0.6-13.6,0.7c-0.5,0-1,0-1.5,0    c-9.6,0.3-17.2,7.9-17.5,17.5c-0.1,3.2,0,6.5,0,9.7c0,6.9,1.7,8.6,8.6,8.6c40,0,80.1,0,120.1,0c26.4,0,52.9,0,79.3,0    c5.4,0,7.5-2.1,7.6-7.4c0-3.6,0.1-7.2,0-10.9c-0.3-9.8-7.9-17.4-17.7-17.6c-4.2-0.1-8.5,0-12.7-0.1c-1,0-2.4-0.4-2.9-1    c-5.1-7.4-9.9-14.8-15.3-22.9h4.7c21.7,0,43.4,0,65.1,0c13.8,0,20.8-6.9,20.8-20.6c0-49.9,0-99.8,0-149.7    C299.5,116.8,296.2,112.1,284.9,107.8L284.9,107.8z M263.8,83.9c6.5,0.1,11.8,5.6,11.7,12.1c-0.1,6.5-5.5,11.8-12,11.8    s-11.9-5.5-11.9-11.9C251.6,89.2,257.1,83.7,263.8,83.9L263.8,83.9z M155.8,29.9c33.2,0.1,60,27,59.9,60.1    c-0.1,33.3-27.1,59.9-60.7,59.7c-32.7-0.2-59.2-27.3-59.1-60.5C96,56.6,123.1,29.8,155.8,29.9L155.8,29.9z M235,335.4    c9.9,0,11.2,1.5,10.4,11.9H54c0-2.2-0.2-4.5,0.1-6.6c0.4-3.1,2.4-4.8,5.5-5.2c1.2-0.1,2.5,0,3.7,0    C120.5,335.4,177.8,335.4,235,335.4L235,335.4z M210.2,323.2H89.3c5.2-7.8,10-15.2,15-22.4c0.5-0.8,2.1-1.2,3.2-1.2    c28.2-0.1,56.4-0.1,84.6,0c1.1,0,2.6,0.5,3.2,1.2C200.2,308,205.1,315.4,210.2,323.2L210.2,323.2z M279.2,287.5    c-85.6,0-171.2-0.1-256.7,0.1c-10.1,0-11.3-3.5-10.1-12.1h25.3c11.2,0,11.4-0.1,12-12h4.2c33.3,0,66.6-0.1,99.9,0    c12.6,0.1,23.3-4,32.6-12.6c17-15.8,34.2-31.3,51.2-47.1c9.2-8.6,10.7-21.6,3.9-31.6c-8.2-12.2-25.1-14.2-36.3-4.1    c-10.6,9.5-21.1,19.1-31.4,28.9c-3.7,3.6-7.4,5.7-12.6,4.5c-2.4-0.5-4.9-0.6-7.3-0.8c-0.7-2.7-1-5.1-1.9-7.4    c-3.3-8.8-9.8-14-18.9-15.6c-18.9-3.3-37.8-6.6-56.8-9.6c-4.4-0.7-9-0.2-13.5-0.3c-4.2,0-8.5,0-13.2,0c0-1.9,0-3.6,0-5.3    c-0.2-4.5-2.2-6.6-6.7-6.7c-10.1-0.1-20.2,0-30.5,0c-0.1-0.9-0.3-1.8-0.3-2.6c0-8.7-0.1-17.5,0-26.2c0-4.9,2.2-7.1,7.1-7.1    c22.9,0,45.9,0,68.9-0.1c2.1,0,3,0.9,3.9,2.6c12.6,23.3,32,36.4,58.3,38.8c28.1,2.6,55.9-12.7,69-37.9c1.3-2.6,2.7-3.6,5.6-3.5    c18.2,0.2,36.4,0.1,54.6,0.1c6.2,0,8.1,1.9,8.1,8c0,50.5,0,101.1,0,151.6C287.5,285.7,285.6,287.5,279.2,287.5L279.2,287.5z     M12.2,263.2v-95.4h25v95.4H12.2z M84.5,218c14,2.6,27.9,5.2,42,7.3c9.4,1.4,17.1-2.4,22.6-10.2c1.2-1.6,2.2-2.3,4.3-2    c3.4,0.5,7,0.6,10.4,0.9c6.1,0.6,11.2-1.4,15.7-5.6c11.1-10.3,22.2-20.4,33.3-30.7c3-2.8,6.4-4.4,10.5-3.8    c4.7,0.7,8.1,3.2,9.5,7.9c1.7,5.3,0.2,9.9-3.8,13.6c-8.8,8.1-17.6,16.2-26.4,24.3c-8.2,7.5-16.4,14.9-24.5,22.5    c-6.7,6.3-14.5,9.3-23.7,9.3c-33.6-0.1-67.1,0-100.7,0h-4.1v-71.8c11.3,0.1,22.4-0.6,33.5,1.6c15.3,3,30.7,5.5,46,8.1    c4.4,0.8,8.2,2.1,10.6,6.2c2.4,4.1,2.5,8.4-0.2,12.4c-3,4.5-7.4,6.1-12.7,5.2c-7.5-1.3-15-2.6-22.4-4c-5.8-1-11.5-2.1-17.3-3.1    c-3.7-0.6-6.8,1.2-7.5,4.4C78.6,214.1,80.6,217.3,84.5,218L84.5,218z"/>
		<path class="st1" d="M47.8,83.8c13.2,0.1,24-10.6,24.1-23.9c0-13.3-10.7-24-24-24C34.8,35.9,24,46.6,24,59.6    C23.9,72.9,34.5,83.7,47.8,83.8L47.8,83.8z M48,47.9c6.5,0.1,11.9,5.4,11.9,12s-5.3,11.9-11.9,12c-6.7,0.1-12.1-5.4-12.1-12.1    C36,53.2,41.5,47.9,48,47.9z"/>
		<path class="st1" d="M263.5,59.8c3.7,0,6-2.8,6-7.5c0-7.4,0-14.7,0-22.1s0-15.2,0-22.8c0-4.7-2.2-7.5-6-7.5c-3.7,0-6,2.7-6,7.4    c0,15,0,30,0,44.9C257.6,57.1,259.8,59.8,263.5,59.8L263.5,59.8z"/>
		<path class="st1" d="M221.6,35.2c0.1,4.1,2.5,6.7,6,6.7s5.9-2.6,5.9-6.8c0.1-9.5,0.1-19,0-28.5c0-4.1-2.5-6.7-6-6.7    s-5.9,2.6-5.9,6.8c-0.1,4.6,0,9.2,0,13.9C221.6,25.5,221.6,30.3,221.6,35.2L221.6,35.2z"/>
		<path class="st1" d="M89.7,35.9c3.5,0.1,6-2.5,6.1-6.6c0.1-3.9,0-7.7,0-11.6c0-3.7,0.1-7.5,0-11.2C95.7,2.6,93.4,0.1,90,0    c-3.5-0.1-6,2.5-6.1,6.6c-0.1,7.6-0.1,15.2,0,22.8C83.9,33.3,86.4,35.8,89.7,35.9L89.7,35.9z"/>
		<path class="st1" d="M47.9,23.9c3.1,0,5.6-2.3,5.9-5.6c0.2-2.1,0-4.2,0-6.4s0.2-4.2,0-6.4C53.5,2.3,51,0,47.9,0S42.2,2.3,42,5.6    c-0.2,4.2-0.2,8.5,0,12.7C42.2,21.6,44.8,23.9,47.9,23.9L47.9,23.9z"/>
		<path class="st1" d="M155.3,95.8c6.5,0.4,10.7,5.6,9.1,11.3c-1.2,4.2-5.1,6.9-9.3,6.6c-4.5-0.3-7.6-3.6-8.3-8.6    c-0.6-4.2-3-6.5-6.4-6.3s-5.6,2.9-5.6,7.4c0.5,5.9,2.9,11.8,8.6,15.1c4.6,2.7,7.3,5.3,6.6,11.1c-0.4,3.1,2.4,5.1,5.7,5.3    c3.1,0.2,5.7-2.2,6-5.5c0.1-1.4,0.2-2.8,0-4.1c-0.3-2.3,0.5-3.4,2.8-4.5c9.5-4.3,14.1-14.2,11.6-24.1c-2.4-9.2-9.9-15.1-19.9-15.7    c-4.9-0.3-8.3-3-9.2-7.2c-0.8-3.9,1.4-8.2,5.1-9.9c5.7-2.7,11.8,1.1,12.7,7.8c0.6,4.2,3,6.6,6.4,6.3c3.6-0.2,5.9-3.2,5.5-7.5    c-0.6-6.3-3-11.9-8.5-15.1c-4.7-2.7-7.3-5.3-6.6-11c0.4-3.1-2.3-5.1-5.6-5.3c-3.1-0.2-5.7,2.2-6,5.5c-0.1,1.2-0.2,2.5,0,3.7    c0.2,2.5-0.5,3.9-3.1,5c-9.3,4.2-13.9,14.4-11.2,24.3C137.9,89.4,145.4,95.2,155.3,95.8L155.3,95.8z"/>
	</g>
</g>
</svg>