<?xml version="1.0" encoding="UTF-8"?>
<svg width="145px" height="142px" viewBox="0 0 145 142" version="1.1" xmlns="http://www.w3.org/2000/svg" xmlns:xlink="http://www.w3.org/1999/xlink">
    <!-- Generator: Sketch 52.1 (67048) - http://www.bohemiancoding.com/sketch -->
    <title>ic-servicos-3</title>
    <desc>Created with Sketch.</desc>
    <g id="Telas" stroke="none" stroke-width="1" fill="none" fill-rule="evenodd">
        <g id="Index" transform="translate(-739.000000, -2235.000000)">
            <g id="&gt;-servicos" transform="translate(-128.000000, 1630.000000)">
                <g id="servico-03" transform="translate(867.000000, 605.000000)">
                    <g id="ic-servicos-3">
                        <circle id="Oval-Copy-2" fill="#E60B65" fill-rule="nonzero" cx="44.5" cy="44.5" r="44.5"/>
                        <path d="M66,65.0925852 C55.9957965,77.3561825 55.9957965,94.6438175 66,106.907415 L63.255283,109 C52.248239,95.5094765 52.248239,76.4905235 63.255283,63 L66,65.0925852 Z M94.4999892,52.4968133 C86.7451042,52.4677178 79.211348,55.1138593 73.1378744,60 L71,57.2550955 C84.7838277,46.2483015 104.216172,46.2483015 118,57.2550955 L115.862126,60 C109.788646,55.1138546 102.254882,52.4677128 94.4999892,52.4968133 Z M93.5,113.642121 C103.699145,113.64708 113.037239,107.977192 117.663313,98.9706799 C122.289388,89.9641681 121.419791,79.1467253 115.413139,70.979394 L118.150467,69 C121.964368,74.1563886 124.014024,80.3861989 123.999928,86.7790909 C123.999928,103.442955 110.317817,117 93.5,117 C76.6821831,117 63.0000722,103.442955 63.0000722,86.7790909 C62.9859743,80.3861994 65.0356293,74.1563891 68.8495284,69 L71.5868609,70.979394 C65.5802091,79.1467253 64.7106123,89.9641681 69.3366866,98.9706799 C73.9627609,107.977192 83.3008549,113.64708 93.5,113.642121 Z M111,61.130909 L108.996012,64 C99.4651368,56.7360014 86.5348632,56.7360014 77.0039884,64 L75,61.130909 C85.7247487,52.9563637 100.275251,52.9563637 111,61.130909 Z M130.43453,110.598633 C131.110621,109.932716 132.206657,109.932716 132.882748,110.598633 L145,122.535603 L142.551783,124.947186 L131.658639,114.216008 L121.989392,123.741394 L138.075847,139.588417 L135.62763,142 L118.317269,124.947186 C117.641291,124.281238 117.641291,123.201551 118.317269,122.535603 L120.555341,120.330832 L116.400725,116.2379 C102.597493,126.442765 83.5509253,126.217825 70,115.689908 L72.1447645,113.012714 C78.2378458,117.778339 85.7959246,120.359212 93.5758456,120.330832 C112.665843,120.330832 128.196567,105.031072 128.196567,86.2252036 C128.225264,78.5611031 125.605469,71.1155551 120.768042,65.1130824 L123.485453,63 C134.172431,76.3492659 134.400855,95.1124538 124.041933,108.710366 L128.196567,112.803293 L130.43453,110.598633 Z M119.083852,114.057796 L123.003459,117.919137 L125.748449,115.214987 L121.828842,111.353646 C120.96068,112.300016 120.044515,113.202551 119.083852,114.057796 Z M89.5,83 C88.6715729,83 88,82.3284271 88,81.5 C88,80.6715729 88.6715729,80 89.5,80 C90.3284271,80 91,80.6715729 91,81.5 C91,82.3284271 90.3284271,83 89.5,83 Z M97.5,83 C96.6715729,83 96,82.3284271 96,81.5 C96,80.6715729 96.6715729,80 97.5,80 C98.3284271,80 99,80.6715729 99,81.5 C99,82.3284271 98.3284271,83 97.5,83 Z M105.276243,92.8445658 L98.6359252,92.8445658 L98.6359252,94.5581528 C104.126498,94.6137975 109.191179,97.5296444 112,102.252141 L109.055405,104 C106.841828,100.280073 102.83962,97.9965184 98.5139278,97.9853097 L98.3406311,97.9853097 C97.6158711,100.039161 95.6761535,101.412485 93.5,101.412485 C91.3238465,101.412485 89.3841289,100.039161 88.6593689,97.9853097 L88.4860722,97.9853097 C84.1603799,97.9965184 80.1581724,100.280073 77.9445946,104 L75,102.252141 C77.8088228,97.5296418 82.8735078,94.6137945 88.3640834,94.5581528 L88.3640834,92.8445658 L81.7237657,92.8445658 C79.5625631,92.8441248 77.6143342,91.540901 76.7871992,89.5423611 C75.9600641,87.5438211 76.4168384,85.2433626 77.9446075,83.7132892 C78.168378,83.4899088 78.3750999,83.2500482 78.5630344,82.9957246 C78.2511374,82.3233876 78.0904276,81.5907375 78.0922417,80.8494569 C78.0916681,79.3876102 78.7145103,77.9950253 79.8042153,77.021732 L79.8042153,75.7086959 C79.8042153,68.1375922 85.9360289,62 93.5000043,62 C101.06398,62 107.195793,68.1375922 107.195793,75.7086959 L107.195793,77.021732 C108.285498,77.9950253 108.90834,79.3876102 108.907767,80.8494569 C108.909582,81.5907371 108.748874,82.3233873 108.436978,82.9957246 C108.624913,83.2500482 108.831635,83.4899088 109.055405,83.7132892 C110.581823,85.2438309 111.037746,87.5435861 110.210849,89.5415488 C109.383952,91.5395115 107.436821,92.8428389 105.276243,92.8445658 Z M106.633008,86.1380019 C106.419299,85.9248856 106.21645,85.7011304 106.025231,85.4675867 C105.324001,85.8122304 104.553049,85.9910385 103.771846,85.9902179 L103.183355,85.9902179 C102.737803,87.2545305 102.048531,88.4189549 101.154666,89.4173918 L105.276243,89.4173918 C105.917437,89.4169707 106.516094,89.0961677 106.871962,88.5622913 C107.227831,88.0284149 107.293927,87.3519512 107.048142,86.7591772 C106.952817,86.5263278 106.811632,86.3150719 106.633001,86.1380019 Z M105.48382,80.8494569 C105.482563,79.9035904 104.716822,79.1371278 103.771846,79.1358699 L103.771846,82.5630439 C104.716818,82.5617766 105.482554,81.7953194 105.48382,80.8494569 Z M93.5000043,65.427174 C87.8295123,65.4331855 83.2341684,70.0328601 83.2281625,75.7086968 L84.9401362,75.7086959 C86.2483977,75.7097033 87.4100845,74.8714993 87.8226717,73.6288297 L88.6272994,71.2126721 C89.3265911,69.1135129 91.2893066,67.6976823 93.5000043,67.6976823 C95.710702,67.6976823 97.6734175,69.1135129 98.3727092,71.2126721 L99.1773368,73.6288297 C99.5899241,74.8714993 100.751611,75.7097033 102.059872,75.7086959 L103.771846,75.7086968 C103.76584,70.0328601 99.1704962,65.4331855 93.5000043,65.427174 Z M83.2281625,79.1358699 C82.2826656,79.1358699 81.5161889,79.9030689 81.5161889,80.8494569 C81.5161889,81.7958449 82.2826656,82.5630439 83.2281625,82.5630439 L83.2281625,79.1358699 Z M81.7237657,89.4173918 L85.8453422,89.4173957 C84.948425,88.4200628 84.2568559,87.2554431 83.8102336,85.9902179 L83.2281625,85.9902179 C82.4469593,85.9910385 81.6760072,85.8122304 80.9747772,85.4675867 C80.7843437,85.6989102 80.5810041,85.9238035 80.3670074,86.1380019 C79.8163992,86.6867569 79.6510695,87.5138601 79.9483541,88.23242 C80.2456387,88.9509799 80.9467636,89.4189352 81.7237657,89.4173918 Z M96.2391728,88.8454822 C98.7344799,87.7548378 100.347506,85.2884436 100.347899,82.5630439 L100.347899,78.9045185 C98.2671801,78.3349492 96.6087611,76.7617852 95.928884,74.7126735 L95.1242564,72.2965351 C94.8911589,71.5968045 94.2369118,71.1248526 93.5000021,71.1248526 C92.7630925,71.1248526 92.1088454,71.5968045 91.8757479,72.2965351 L91.0711203,74.7126735 C90.391244,76.7617842 88.7328269,78.334948 86.6521098,78.9045185 L86.6521098,82.5630439 C86.655742,85.2874813 88.2677255,87.752261 90.7608636,88.8454736 C91.384431,89.1181481 91.787615,89.7344198 91.7880478,90.415537 L91.7880478,96.2717398 C91.7880478,97.2181278 92.5545245,97.9853268 93.5000214,97.9853268 C94.4455183,97.9853268 95.211995,97.2181278 95.211995,96.2717398 L95.211995,90.4155456 C95.2115103,89.7341544 95.6149942,89.1174244 96.2391792,88.8454822 Z M123.521897,54.4827934 C123.838903,54.173668 124.268848,54.0000029 124.717155,54 L145,54 L145,57.2965587 L125.417225,57.2965587 L112.390515,70 L110,67.6690281 L123.521897,54.4827934 Z M124,40 L131,40 L131,43 L124,43 L124,40 Z M135,40 L145,40 L145,43 L135,43 L135,40 Z M123,47 L130,47 L130,50 L123,50 L123,47 Z M133,47 L145,47 L145,50 L133,50 L133,47 Z M74.609485,70 L61.5827746,57.2965587 L42,57.2965587 L42,54 L62.2828455,54 C62.7311517,54.0000029 63.1610966,54.173668 63.478103,54.4827934 L77,67.6690281 L74.609485,70 Z M45,40 L52,40 L52,43 L45,43 L45,40 Z M56,40 L66,40 L66,43 L56,43 L56,40 Z M42,47 L49,47 L49,50 L42,50 L42,47 Z M52,47 L66,47 L66,50 L52,50 L52,47 Z M64.9722136,116.502185 C64.6578907,116.820929 64.2315855,116.999997 63.7870743,117 L42,117 L42,113.600874 L63.0929297,113.600874 L67.6297213,109 L70,111.403496 L64.9722136,116.502185 Z M47,120 L57,120 L57,123 L47,123 L47,120 Z M61,120 L70,120 L70,123 L61,123 L61,120 Z M42,127 L52,127 L52,130 L42,130 L42,127 Z M56,127 L63,127 L63,130 L56,130 L56,127 Z" id="ic-ux" fill="#FFFFFF"/>
                    </g>
                </g>
            </g>
        </g>
    </g>
</svg>