<svg width="30" height="30" viewBox="0 0 30 30" fill="none" xmlns="http://www.w3.org/2000/svg">
<path d="M5.81084e-06 14.9808C0.00721715 6.70941 6.7354 -0.00560636 15.0108 3.5124e-06C23.299 0.00561338 30.016 6.74226 30 15.0328C29.9839 23.3058 23.2486 30.0144 14.9731 30C6.69854 29.9856 -0.00720553 23.2593 5.81084e-06 14.9808ZM5.76106 14.984H5.73462C5.73462 16.1236 5.72661 17.2632 5.73863 18.4028C5.74263 18.8315 5.76106 19.2643 5.82677 19.6866C6.1024 21.4682 6.95414 22.8506 8.644 23.62C9.49333 24.0062 10.3988 24.1649 11.325 24.1697C13.6639 24.1809 16.0036 24.1801 18.3424 24.1681C18.8504 24.1657 19.3632 24.1361 19.864 24.0535C21.7558 23.741 23.1564 22.7761 23.8567 20.9336C24.1436 20.1795 24.2638 19.3901 24.2646 18.5839C24.267 16.2646 24.2702 13.9453 24.2613 11.6261C24.2597 11.1877 24.2397 10.7445 24.1724 10.3125C23.8751 8.40759 22.9281 6.98669 21.0795 6.26382C20.3272 5.96971 19.5371 5.83507 18.7343 5.83106C16.2447 5.81904 13.756 5.81503 11.2665 5.83186C10.2481 5.83908 9.25856 6.03542 8.34993 6.52348C6.64165 7.44109 5.88926 8.96858 5.77709 10.8158C5.69296 12.1999 5.76026 13.5935 5.76026 14.9824L5.76106 14.984Z" fill="#240144"/>
<path d="M19.9041 11.118C19.3616 11.1164 18.9345 10.6948 18.9297 10.1555C18.9249 9.60891 19.3688 9.17054 19.9185 9.17695C20.4521 9.18336 20.8808 9.62013 20.8784 10.1555C20.876 10.6876 20.4393 11.1196 19.9033 11.1172L19.9041 11.118Z" fill="#240144"/>
<path d="M10.1464 15.0233C10.1256 12.3466 12.285 10.1668 14.9772 10.1483C17.6598 10.1291 19.832 12.2801 19.8537 14.9768C19.8753 17.6575 17.7207 19.8326 15.0245 19.8526C12.345 19.8726 10.168 17.7168 10.1472 15.0241L10.1464 15.0233Z" fill="#240144"/>
</svg>