<svg width="30" height="30" viewBox="0 0 30 30" fill="none" xmlns="http://www.w3.org/2000/svg">
<path d="M0 15.9403C0 15.315 0 14.6904 0 14.0651C0.0172203 13.9798 0.0391371 13.8961 0.051661 13.81C0.151852 13.1354 0.209775 12.4514 0.356148 11.7877C2.17915 3.53344 10.3909 -1.5927 18.6144 0.448363C26.4309 2.38847 31.2518 10.0245 29.7152 17.9219C28.5396 23.966 23.6568 28.7384 17.5859 29.7699C17.0403 29.863 16.4885 29.9241 15.9398 30H14.0643C14.0001 29.9836 13.9359 29.9562 13.871 29.9523C12.5998 29.8623 11.3545 29.6283 10.1592 29.1853C4.71054 27.1677 1.40424 23.3024 0.237171 17.6143C0.124456 17.0633 0.0774915 16.4983 0 15.9403ZM13.7097 12.7574C12.5951 12.8098 11.5478 13.0055 10.6062 13.5783C8.57807 14.8141 7.78046 17.0492 8.50371 19.4347C9.41404 22.4384 12.6397 23.7923 15.3183 22.2654C17.1538 21.219 18.0359 19.5677 18.1001 17.4891C18.1494 15.88 18.1252 14.2686 18.133 12.658C18.133 12.5468 18.133 12.4357 18.133 12.2862C18.4265 12.4435 18.6645 12.5758 18.9071 12.6987C19.7173 13.1103 20.5619 13.3842 21.4863 13.3592C21.7007 13.3537 21.772 13.2849 21.7673 13.0673C21.754 12.4232 21.7524 11.7783 21.7673 11.135C21.7735 10.8916 21.7117 10.8087 21.4534 10.775C19.9623 10.5809 18.9009 9.81473 18.3984 8.36532C18.259 7.96306 18.1729 7.54357 18.0594 7.12174H15.5061C15.5061 7.24696 15.5061 7.35262 15.5061 7.45827C15.5132 10.66 15.5312 13.8616 15.5171 17.0626C15.5147 17.5908 15.4232 18.1347 15.2768 18.6434C14.9809 19.6765 14.213 20.229 13.1853 20.2361C11.4813 20.2486 10.2719 18.4705 10.9647 16.971C11.32 16.2009 11.9932 15.8581 12.7595 15.6444C13.0757 15.5568 13.3935 15.4762 13.7089 15.3924V12.7574H13.7097Z" fill="#240144"/>
</svg>