<?xml version="1.0" encoding="utf-8"?>
<!-- Generator: Adobe Illustrator 27.9.6, SVG Export Plug-In . SVG Version: 9.03 Build 54986)  -->
<svg version="1.1" id="Camada_1" xmlns="http://www.w3.org/2000/svg" xmlns:xlink="http://www.w3.org/1999/xlink" x="0px" y="0px"
	 viewBox="0 0 30 30" style="enable-background:new 0 0 30 30;" xml:space="preserve">
<style type="text/css">
	.st0{fill:#240144;}
</style>
<g>
	<path class="st0" d="M29.5,9.2c0-0.8-0.2-1.5-0.5-2.2c-0.2-0.5-0.3-0.5-0.6-0.1c-2.8,2.8-5.5,5.6-8.3,8.3c-2.2,2.1-4.7,2.6-7.6,1.6
		c-1.1-0.4-2-1.2-2.9-2c-2.6-2.6-5.3-5.3-7.9-7.9C1.3,6.5,1.2,6.5,1,7C0.7,7.7,0.5,8.5,0.5,9.3c0,3.8,0,7.6,0,11.4
		c0,0.4,0,0.7,0.1,1.1c0.5,2.6,2.7,4.4,5.4,4.4c3,0,6,0,9,0s6,0,9,0c0.1,0,0.1,0,0.2,0c2.9-0.1,5.3-2.4,5.3-5.4
		C29.5,17,29.5,13.1,29.5,9.2z"/>
	<path class="st0" d="M11.6,13.8c1.9,1.8,4.9,1.9,6.8,0c2.9-2.9,5.8-5.8,8.7-8.6C27.3,5,27.3,4.9,27,4.7c-0.9-0.6-2-0.9-3.1-0.9
		c-3,0-5.9,0-8.9,0c0,0,0,0,0,0c-3.1,0-6.1,0-9.2,0c-1,0-2,0.3-2.8,0.9C2.7,4.9,2.7,5,3,5.2C5.8,8.1,8.7,11,11.6,13.8z"/>
</g>
</svg>
