<svg width="30" height="30" viewBox="0 0 30 30" fill="none" xmlns="http://www.w3.org/2000/svg">
<path d="M14.0622 0C14.6874 0 15.312 0 15.9372 0C16.0122 0.0164066 16.0866 0.0421883 16.1628 0.0480478C18.4983 0.222661 20.6849 0.892986 22.6771 2.11938C26.5489 4.50302 28.9342 7.93199 29.7697 12.4151C29.8711 12.9594 29.9244 13.5132 30 14.0622V15.9372C29.976 16.1294 29.949 16.3216 29.9285 16.5144C29.6074 19.481 28.5323 22.143 26.6385 24.4505C24.2837 27.3199 21.2715 29.1023 17.6124 29.768C17.0581 29.8687 16.4962 29.9238 15.9378 30H14.0628C13.6966 29.9549 13.3298 29.9156 12.9648 29.8641C10.1975 29.4703 7.71196 28.4162 5.55165 26.6396C2.68354 24.2823 0.897639 21.274 0.233199 17.6142C0.132419 17.0599 0.0767563 16.4968 0 15.9378C0 15.3126 0 14.688 0 14.0628C0.024023 13.8706 0.0498037 13.679 0.0708971 13.4862C0.417765 10.3086 1.6195 7.49897 3.73879 5.10362C6.06961 2.46977 8.97229 0.831462 12.4445 0.226176C12.9806 0.132424 13.5226 0.0744155 14.0622 0ZM12.6759 22.661H16.3134V22.3036C16.3134 20.8586 16.3116 19.4137 16.3145 17.9693C16.3157 17.374 16.3145 16.7781 16.3374 16.1833C16.362 15.5329 16.6872 15.0308 17.1993 14.6575C18.2446 13.8958 19.6361 14.3528 19.9912 15.5909C20.1078 15.997 20.1477 16.4359 20.1518 16.8607C20.1687 18.6859 20.1588 20.5117 20.1588 22.3375V22.6604H23.7962C23.8015 22.5514 23.8097 22.4565 23.8097 22.361C23.8103 20.3986 23.815 18.4363 23.8068 16.474C23.805 16.0456 23.7781 15.615 23.7265 15.1896C23.4675 13.0503 22.1878 11.7014 20.126 11.4594C18.6336 11.2842 17.3686 11.7325 16.4739 13.0098C16.4423 13.0549 16.4042 13.096 16.3169 13.202V11.6967H12.6771V22.6598L12.6759 22.661ZM7.00592 11.6797V22.6569H10.6451V22.2924C10.6451 19.0117 10.6451 15.731 10.6451 12.4502C10.6451 12.2844 10.6316 12.1168 10.648 11.9528C10.6709 11.7272 10.5777 11.6733 10.3639 11.6756C9.40704 11.6856 8.45023 11.6803 7.49341 11.6803C7.33872 11.6803 7.18404 11.6803 7.00592 11.6803V11.6797ZM6.77799 8.29938C6.78502 9.41151 7.64106 10.1984 8.82991 10.1873C10.0264 10.1762 10.8953 9.37225 10.8842 8.28766C10.8724 7.16323 10.0129 6.3763 8.80647 6.38743C7.60825 6.39798 6.77038 7.18784 6.77741 8.29938H6.77799Z" fill="#240144"/>
</svg>