<?xml version="1.0" encoding="utf-8"?>
<!-- Generator: Adobe Illustrator 27.9.6, SVG Export Plug-In . SVG Version: 9.03 Build 54986)  -->
<svg version="1.1" id="Camada_2_00000034782479456171956740000016392333437923571843_"
	 xmlns="http://www.w3.org/2000/svg" xmlns:xlink="http://www.w3.org/1999/xlink" x="0px" y="0px" viewBox="0 0 1009.7 192.8"
	 style="enable-background:new 0 0 1009.7 192.8;" xml:space="preserve">
<style type="text/css">
	.st0{fill:#FF1A4F;}
	.st1{fill:#FFFFFF;}
	.st2{fill:#AB7CDD;}
</style>
<g id="Camada_1-2">
	<g>
		<g>
			<circle class="st0" cx="79" cy="80.6" r="35.9"/>
			<path class="st0" d="M158.2,80.6c0-9.6-1.7-18.7-4.9-27.2c0-0.2-0.1-0.3-0.1-0.5c-0.3-0.8-0.6-1.7-1-2.5c-1.1-2.6-4.2-3.5-6.5-2
				c0,0-0.1,0-0.1,0c-1.8,1.2-2.5,3.5-1.6,5.4c0.1,0.2,0.1,0.3,0.2,0.4c0,0,0,0,0,0.1c3.3,8.1,5.1,16.9,5.1,26.1
				c0,13.9-4.1,26.9-11.1,37.8c-2.4-1-5-1.5-7.8-1.2c-7.8,0.7-14.1,6.9-14.9,14.7c-1,10.3,7.6,19,17.9,18c7.8-0.8,14-7.1,14.7-14.8
				c0.4-4.1-0.8-7.8-2.9-10.9C153.3,111.6,158.1,96.6,158.2,80.6L158.2,80.6z M139,135c-0.6,2.9-2.9,5.3-5.8,5.8
				c-5.2,1-9.7-3.5-8.7-8.7c0.6-2.9,2.9-5.3,5.8-5.8C135.4,125.2,140,129.7,139,135L139,135z"/>
			<path class="st0" d="M79.1,159.8c9.6,0,18.7-1.8,27.2-5c0.2,0,0.3-0.1,0.5-0.2c0.8-0.3,1.6-0.6,2.4-1c2.6-1.1,3.5-4.2,2-6.5
				c0,0,0-0.1-0.1-0.1c-1.2-1.8-3.5-2.4-5.4-1.6c-0.1,0.1-0.3,0.1-0.4,0.2c0,0-0.1,0-0.1,0c-8.1,3.3-16.9,5.1-26.1,5.2
				c-13.9,0.1-26.9-4-37.9-11c1-2.4,1.5-5,1.2-7.8c-0.7-7.8-7-14.1-14.7-14.8c-10.3-1-19,7.7-17.9,18c0.8,7.8,7.1,14,14.9,14.6
				c4.1,0.3,7.8-0.8,10.9-2.9C48.1,155.1,63.1,159.8,79.1,159.8L79.1,159.8z M24.7,140.8c-2.9-0.6-5.3-2.9-5.9-5.8
				c-1-5.2,3.5-9.7,8.7-8.8c2.9,0.6,5.3,2.9,5.8,5.8C34.4,137.2,29.9,141.8,24.7,140.8L24.7,140.8z"/>
			<path class="st0" d="M0,79.8c0,9.6,1.8,18.7,5,27.2c0,0.2,0.1,0.3,0.2,0.5c0.3,0.8,0.6,1.6,1,2.4c1.1,2.6,4.2,3.5,6.5,2
				c0,0,0.1,0,0.1-0.1c1.8-1.2,2.4-3.5,1.6-5.4c-0.1-0.1-0.1-0.3-0.2-0.4c0,0,0-0.1,0-0.1C10.9,97.7,9,89,9,79.7
				c-0.1-13.9,4-26.9,11-37.9c2.4,1,5,1.5,7.8,1.2c7.8-0.7,14.1-7,14.8-14.7c1-10.3-7.7-19-18-17.9c-7.8,0.8-14,7.1-14.6,14.9
				c-0.4,4.1,0.8,7.8,2.9,10.9C4.7,48.7-0.1,63.7,0,79.8z M19,25.3c0.5-2.9,2.9-5.3,5.8-5.8c5.2-1,9.7,3.5,8.8,8.7
				c-0.5,2.9-2.9,5.3-5.8,5.8C22.6,35,18,30.5,19,25.3z"/>
			<path class="st0" d="M78.4,0.9c-9.6,0.1-18.7,2-27.1,5.2c-0.2,0-0.3,0.1-0.5,0.2c-0.8,0.3-1.6,0.7-2.4,1
				c-2.5,1.1-3.4,4.2-1.9,6.6c0,0,0,0.1,0,0.1c1.2,1.8,3.5,2.4,5.5,1.6c0.1-0.1,0.3-0.1,0.4-0.2c0,0,0,0,0.1,0
				c8-3.4,16.8-5.3,26-5.4c13.9-0.2,27,3.7,38,10.6c-1,2.4-1.4,5-1.1,7.8c0.8,7.8,7.1,14,14.9,14.7c10.4,0.9,18.9-7.9,17.7-18.2
				c-0.9-7.7-7.3-13.9-15-14.5c-4.1-0.3-7.8,0.9-10.8,3.1C109.5,5.2,94.4,0.6,78.4,0.9z M133,19.3c2.9,0.5,5.3,2.8,5.9,5.7
				c1.1,5.2-3.4,9.8-8.6,8.9c-2.9-0.5-5.3-2.8-5.9-5.7C123.3,23,127.8,18.4,133,19.3L133,19.3z"/>
		</g>
		<g>
			<path class="st1" d="M405.6,70.9c-23.4,3.2-43.5,6-43.5,34.1c0,16.8,11.6,26.4,31.9,26.4c9.6,0,18-2.5,24.5-7.2
				c0.7-0.5,1.5-0.6,2.3-0.3c0.8,0.3,1.4,1,1.5,1.8l0,0.1c0.4,1.9,2,3.2,3.9,3.2h17.2c2.2,0,4-1.8,4-4V69.2
				c0-26-12.5-37.6-40.6-37.6c-25.8,0-39.8,10.1-41.5,30c-0.1,1.1,0.3,2.2,1,3c0.8,0.8,1.9,1.3,3,1.3h16.9c1.9,0,3.5-1.3,3.9-3.1
				c1.8-7.3,6.8-10.7,15.6-10.7c9.4,0,15,3.3,15,8.9S418.6,69.1,405.6,70.9L405.6,70.9z M388.3,102.6c0-6.6,2.9-11,17.9-13.8
				c5.7-1.1,9.1-1.9,11.6-2.9c0.3-0.1,0.6-0.2,0.8-0.2c0.5,0,1,0.2,1.4,0.4c0.7,0.5,1.1,1.2,1.1,2.1l-0.1,4.5
				c-0.2,10.9-9.7,19.5-21.6,19.5C391.9,112.2,388.3,109.1,388.3,102.6z M423,125.6L423,125.6L423,125.6L423,125.6z"/>
			<path class="st1" d="M460.7,0h18.2c2.2,0,4,1.8,4,4V125c0,2.2-1.8,4-4,4h-18.2c-2.2,0-4-1.8-4-4V4C456.7,1.8,458.5,0,460.7,0z"/>
			<path class="st1" d="M532.8,70.9c-23.4,3.2-43.5,6-43.5,34.1c0,16.8,11.6,26.4,31.9,26.4c9.6,0,18-2.5,24.5-7.2
				c0.7-0.5,1.5-0.6,2.3-0.3c0.8,0.3,1.3,1,1.5,1.8l0,0.1c0.4,1.9,2,3.2,3.9,3.2h17.2c2.2,0,4-1.8,4-4V69.2
				c0-26-12.5-37.6-40.6-37.6c-25.8,0-39.8,10.1-41.5,30c-0.1,1.1,0.3,2.2,1,3c0.8,0.8,1.9,1.3,3,1.3h16.9c1.8,0,3.5-1.3,3.9-3.1
				c1.8-7.3,6.8-10.7,15.6-10.7c9.4,0,15,3.3,15,8.9S545.8,69.1,532.8,70.9L532.8,70.9z M515.5,102.6c0-6.6,2.9-11,17.9-13.8
				c5.7-1.1,9.1-1.9,11.6-2.9c0.3-0.1,0.6-0.2,0.8-0.2c0.5,0,1,0.2,1.4,0.4c0.7,0.5,1.1,1.2,1.1,2.1l-0.1,4.5
				c-0.2,10.9-9.7,19.5-21.6,19.5C519.1,112.2,515.5,109.1,515.5,102.6z M550.2,125.6L550.2,125.6L550.2,125.6L550.2,125.6z"/>
			<path class="st1" d="M636.4,31.7c-9.3,0-16.9,2.9-23.2,9c-0.8,0.8-1.8,0.7-2.4,0.5c-0.8-0.3-1.3-1.1-1.3-1.9V3.7
				c0-2-1.7-3.7-3.7-3.7h-18.4c-2,0-3.7,1.7-3.7,3.7v121.5c0,2.1,1.7,3.7,3.7,3.7h17.9c2,0,3.7-1.6,3.7-3.7v-0.4
				c0-1,0.7-1.7,1.3-1.9c0.8-0.3,1.7-0.2,2.3,0.4c5.5,5.3,12.8,8,21.7,8c25,0,41.2-19.9,41.2-50.8S660.1,31.7,636.4,31.7L636.4,31.7
				z M648.8,82.3c0,16.2-8.3,27.5-20.3,27.5s-20.1-10.9-20.1-25.9c0-19.6,6.7-29.5,19.9-29.5S648.8,63.4,648.8,82.3z"/>
			<path class="st1" d="M725.3,31.7c-25.9,0-39.9,10.2-41.6,30.3c-0.1,1,0.3,2.1,1,2.8c0.7,0.8,1.7,1.2,2.7,1.2h17.4
				c1.7,0,3.2-1.2,3.6-2.9c1.7-7.5,6.7-10.9,15.7-10.9s15,3.3,15,8.9s-2.1,8-15.1,9.8c-23.3,3.2-43.5,6-43.5,34.1
				c0,16.8,11.6,26.4,31.9,26.4c9.8,0,18.4-2.6,24.9-7.5c0.6-0.4,1.3-0.5,2-0.3c0.7,0.3,1.2,0.8,1.3,1.6c0,0.3,0.1,0.5,0.2,0.8
				c0.4,1.7,1.9,2.9,3.6,2.9h17.8c2,0,3.7-1.7,3.7-3.7v-56C765.9,43.2,753.3,31.7,725.3,31.7L725.3,31.7z M739.6,87.8l-0.1,4.9
				c-0.2,10.9-9.7,19.5-21.6,19.5c-7.5,0-11.2-3.2-11.2-9.6s2.9-11,17.9-13.8c5.9-1.1,9.4-2,11.9-3c0.3-0.1,0.5-0.2,0.8-0.2
				c0.4,0,0.8,0.1,1.2,0.4C739.2,86.4,739.6,87.1,739.6,87.8L739.6,87.8z"/>
			<path class="st1" d="M830.7,54.3v-19c0-2-1.7-3.7-3.7-3.7h-0.3c-7.8,0-15.9,0.6-23.2,7.7c-0.8,0.8-1.7,0.7-2.4,0.5
				c-0.8-0.3-1.3-1.1-1.3-2c0-2-1.7-3.7-3.7-3.7h-17.3c-2,0-3.7,1.7-3.7,3.7v87.4c0,2.1,1.7,3.7,3.7,3.7h18.8c2,0,3.7-1.7,3.7-3.7
				V79.7c0-14.7,7.1-21.8,21.8-21.8c1.2,0,2.4,0,3.5,0.2c1,0.1,2.1-0.3,2.9-1C830.3,56.3,830.7,55.4,830.7,54.3L830.7,54.3z"/>
			<path class="st1" d="M874.1,31.7c-28.3,0-45.9,18.5-45.9,48.2c0,34.2,16,51.6,47.4,51.6c19,0,33.7-9.7,40.3-26.5
				c0.4-1.1,0.3-2.4-0.4-3.4c-0.7-1-1.8-1.6-3.1-1.6h-19.2c-1.5,0-2.8,0.9-3.4,2.2c-2.2,5-8.3,8.2-15.3,8.2
				c-10.7,0-18-7.2-19.8-19.2c-0.1-0.6,0.1-1.2,0.5-1.6c0.4-0.5,1-0.8,1.7-0.8h58.1c1,0,2-0.4,2.7-1.1c0.7-0.7,1.1-1.7,1-2.6
				C917.8,50.1,902.4,31.7,874.1,31.7L874.1,31.7z M891,70.9c-0.4,0.5-1,0.8-1.7,0.8h-31.6c-0.6,0-1.2-0.3-1.7-0.8
				c-0.4-0.5-0.6-1.2-0.5-1.8c1.9-9.9,8.8-16.3,17.7-16.3c7.3,0,16.4,4.3,18.1,16.5C891.5,69.9,891.3,70.5,891,70.9L891,70.9z"/>
			<path class="st1" d="M993.8,76.5c-4.7-1.9-10.8-3.4-17.2-5.1c-3.5-0.9-7.1-1.8-10.8-2.9c-10.1-2.9-14.6-5-14.6-9.9s4.5-7,13.8-7
				c10,0,14.6,2.7,16.2,9.4c0.4,1.7,1.9,2.9,3.6,2.9h18c1.1,0,2.1-0.5,2.8-1.3c0.7-0.8,1-1.9,0.9-2.9c-2.5-18.9-15.9-28.1-40.8-28.1
				c-15,0-40,3.7-40,28.5c0,9.5,4,16.6,12.1,21.7c6.9,4.3,16,7,31.3,10.7c8.2,1.9,14.4,3.9,14.4,9.9c0,8-11,8.9-15.7,8.9
				c-10.5,0-17.2-3.9-18.4-10.8c-0.3-1.8-1.8-3-3.7-3h-19.6c-1.1,0-2.1,0.5-2.8,1.3c-0.7,0.8-1,1.8-0.9,2.8
				c2.2,18.7,19.2,29.9,45.5,29.9s41.5-11.6,41.5-31.7C1009.7,88.1,1004.8,80.9,993.8,76.5L993.8,76.5z"/>
		</g>
		<g>
			<path class="st2" d="M253.1,162.3v30.2h-4V170l-10,22.5h-2.8l-10.1-22.5v22.5h-4v-30.2h4.3l11.2,24.9l11.2-24.9H253.1
				L253.1,162.3z"/>
			<path class="st2" d="M285,192.5l-12.5-13.9v13.9h-4v-30.4h4v14.1l12.6-14.1h5l-13.8,15.2l13.9,15.2L285,192.5L285,192.5z"/>
			<path class="st2" d="M322.1,162.1v3.2h-8.3v27.2h-4v-27.2h-8.3v-3.2H322.1L322.1,162.1z"/>
			<path class="st2" d="M357.9,181.7c-1-1-1.5-2.3-1.5-3.8s0.5-2.8,1.5-3.8s2.3-1.6,3.8-1.6s2.8,0.5,3.8,1.6s1.6,2.3,1.6,3.8
				s-0.5,2.7-1.6,3.8c-1,1-2.3,1.6-3.8,1.6S358.9,182.8,357.9,181.7z"/>
			<path class="st2" d="M421.8,162.1v3.2h-8.3v27.2h-4v-27.2h-8.3v-3.2H421.8L421.8,162.1z"/>
			<path class="st2" d="M439.4,165.3v10.2h11.1v3.3h-11.1v10.5h12.4v3.3h-16.4v-30.4h16.4v3.3L439.4,165.3L439.4,165.3z"/>
			<path class="st2" d="M467,169.3c1.3-2.4,3.2-4.2,5.5-5.6s4.9-2,7.7-2c3.3,0,6.2,0.8,8.7,2.4c2.5,1.6,4.3,3.9,5.4,6.8h-4.8
				c-0.8-1.8-2.1-3.2-3.6-4.2c-1.6-1-3.5-1.5-5.7-1.5s-4,0.5-5.7,1.5c-1.7,1-3,2.4-4,4.2s-1.4,3.9-1.4,6.4s0.5,4.5,1.4,6.3
				c1,1.8,2.3,3.2,4,4.2c1.7,1,3.6,1.5,5.7,1.5s4.1-0.5,5.7-1.5c1.6-1,2.8-2.4,3.6-4.2h4.8c-1.1,2.9-2.9,5.1-5.4,6.7
				c-2.5,1.6-5.4,2.4-8.7,2.4c-2.8,0-5.4-0.7-7.7-2c-2.3-1.3-4.1-3.2-5.5-5.5c-1.3-2.4-2-5-2-8S465.7,171.6,467,169.3L467,169.3z"/>
		</g>
		<path class="st1" d="M331,71.7V125c0,2.2,1.8,4,4,4h17.6c2.2,0,4-1.8,4-4V63.5c0-18.2-14-31.9-32.6-31.9
			c-10.6,0-18.2,3.6-23.5,11.1c-0.5,0.7-1.2,1-2,1c0,0,0,0-0.1,0c-0.8,0-1.5-0.3-1.9-1c-6.4-8.2-12.6-11.2-23.8-11.2
			c-10.1,0-16.9,2.5-22.3,8.2c-0.8,0.9-1.9,0.9-2.7,0.6s-1.6-1-1.6-2.3c0-2.2-1.8-4-4-4h-16.7c-2.2,0-4,1.8-4,4v86.8
			c0,2.2,1.8,4,4,4h18.2c2.2,0,4-1.8,4-4V71.5c0-11.6,4.8-17.4,14.2-17.4c9.4,0,14,2.6,14,18v52.9c0,2.2,1.8,4,4,4h18.2
			c2.2,0,4-1.8,4-4V72.4c0-11.1,6.3-19.1,15-19.1C325.3,53.3,331,60.9,331,71.7L331,71.7z"/>
	</g>
</g>
</svg>
