<?xml version="1.0" encoding="utf-8"?>
<!-- Generator: Adobe Illustrator 27.9.6, SVG Export Plug-In . SVG Version: 9.03 Build 54986)  -->
<svg version="1.1" id="Camada_1" xmlns="http://www.w3.org/2000/svg" xmlns:xlink="http://www.w3.org/1999/xlink" x="0px" y="0px"
	 viewBox="0 0 48 46" style="enable-background:new 0 0 48 46;" xml:space="preserve">
<style type="text/css">
	.st0{fill:#FF1A4F;}
</style>
<g>
	<ellipse transform="matrix(0.1626 -0.9867 0.9867 0.1626 -2.6884 42.9748)" class="st0" cx="24" cy="23.1" rx="9.5" ry="9.5"/>
	<path class="st0" d="M45,23.1c0-2.5-0.5-5-1.3-7.2c0,0,0-0.1,0-0.1c-0.1-0.2-0.2-0.4-0.3-0.7c-0.3-0.7-1.1-0.9-1.7-0.5c0,0,0,0,0,0
		c-0.5,0.3-0.7,0.9-0.4,1.4c0,0,0,0.1,0,0.1c0,0,0,0,0,0c0.9,2.1,1.3,4.5,1.3,6.9c0,3.7-1.1,7.1-3,10c-0.6-0.3-1.3-0.4-2.1-0.3
		c-2.1,0.2-3.7,1.8-3.9,3.9c-0.3,2.7,2,5,4.8,4.8c2.1-0.2,3.7-1.9,3.9-3.9c0.1-1.1-0.2-2.1-0.8-2.9C43.7,31.3,45,27.3,45,23.1z
		 M39.9,37.5c-0.1,0.8-0.8,1.4-1.5,1.5c-1.4,0.3-2.6-0.9-2.3-2.3c0.1-0.8,0.8-1.4,1.5-1.5C39,34.9,40.2,36.1,39.9,37.5z"/>
	<path class="st0" d="M24,44.1c2.5,0,5-0.5,7.2-1.3c0,0,0.1,0,0.1,0c0.2-0.1,0.4-0.2,0.7-0.3c0.7-0.3,0.9-1.1,0.5-1.7c0,0,0,0,0,0
		c-0.3-0.5-0.9-0.6-1.4-0.4c0,0-0.1,0-0.1,0c0,0,0,0,0,0c-2.1,0.9-4.5,1.4-6.9,1.4c-3.7,0-7.1-1.1-10.1-2.9c0.3-0.6,0.4-1.3,0.3-2.1
		c-0.2-2.1-1.8-3.7-3.9-3.9c-2.7-0.3-5,2-4.8,4.8c0.2,2.1,1.9,3.7,3.9,3.9c1.1,0.1,2.1-0.2,2.9-0.8C15.8,42.8,19.7,44.1,24,44.1z
		 M9.6,39c-0.8-0.1-1.4-0.8-1.6-1.5c-0.3-1.4,0.9-2.6,2.3-2.3c0.8,0.1,1.4,0.8,1.6,1.5C12.1,38.1,11,39.3,9.6,39z"/>
	<path class="st0" d="M3,22.9c0,2.5,0.5,5,1.3,7.2c0,0,0,0.1,0,0.1c0.1,0.2,0.2,0.4,0.3,0.7c0.3,0.7,1.1,0.9,1.7,0.5c0,0,0,0,0,0
		C6.9,31,7,30.4,6.8,29.9c0,0,0-0.1,0-0.1c0,0,0,0,0,0c-0.9-2.1-1.4-4.5-1.4-6.9c0-3.7,1.1-7.1,2.9-10.1c0.6,0.3,1.3,0.4,2.1,0.3
		c2.1-0.2,3.7-1.8,3.9-3.9c0.3-2.7-2-5-4.8-4.8C7.5,4.7,5.8,6.3,5.7,8.4c-0.1,1.1,0.2,2.1,0.8,2.9C4.3,14.6,3,18.6,3,22.9z M8.1,8.4
		C8.2,7.6,8.8,7,9.6,6.9c1.4-0.3,2.6,0.9,2.3,2.3c-0.1,0.8-0.8,1.4-1.5,1.6C9,11,7.8,9.8,8.1,8.4z"/>
	<path class="st0" d="M23.8,1.9c-2.5,0-5,0.5-7.2,1.4c0,0-0.1,0-0.1,0c-0.2,0.1-0.4,0.2-0.6,0.3c-0.7,0.3-0.9,1.1-0.5,1.7
		c0,0,0,0,0,0c0.3,0.5,0.9,0.6,1.4,0.4c0,0,0.1,0,0.1,0c0,0,0,0,0,0c2.1-0.9,4.5-1.4,6.9-1.4c3.7-0.1,7.2,1,10.1,2.8
		c-0.3,0.6-0.4,1.3-0.3,2.1c0.2,2.1,1.9,3.7,3.9,3.9c2.7,0.2,5-2.1,4.7-4.8c-0.2-2.1-1.9-3.7-4-3.8c-1.1-0.1-2.1,0.2-2.9,0.8
		C32.1,3.1,28.1,1.9,23.8,1.9z M38.3,6.8c0.8,0.1,1.4,0.8,1.6,1.5c0.3,1.4-0.9,2.6-2.3,2.3c-0.8-0.1-1.4-0.8-1.6-1.5
		C35.7,7.8,36.9,6.6,38.3,6.8z"/>
</g>
</svg>
