<?xml version="1.0" encoding="UTF-8"?>
<svg width="155px" height="144px" viewBox="0 0 155 144" version="1.1" xmlns="http://www.w3.org/2000/svg" xmlns:xlink="http://www.w3.org/1999/xlink">
    <!-- Generator: Sketch 52.1 (67048) - http://www.bohemiancoding.com/sketch -->
    <title>ic-servicos-01</title>
    <desc>Created with Sketch.</desc>
    <g id="Telas" stroke="none" stroke-width="1" fill="none" fill-rule="evenodd">
        <g id="Index" transform="translate(-739.000000, -1820.000000)" fill-rule="nonzero">
            <g id="&gt;-servicos" transform="translate(-128.000000, 1630.000000)">
                <g id="servico-01" transform="translate(867.000000, 190.000000)">
                    <g id="ic-servicos-01">
                        <circle id="Oval" fill="#E60B65" cx="44.5" cy="44.5" r="44.5"/>
                        <path d="M148.569243,72.4403309 C152.115228,72.4403309 155.00023,75.3072249 155,78.8311821 C155,80.7091602 155,134.984102 155,137.609149 C155,141.133106 152.115228,144 148.569013,144 L119.707006,144 C116.161021,144 113.276019,141.133106 113.276019,137.609149 L113.276019,127.237213 L95.521663,127.237213 C94.5668329,127.237213 93.7931508,126.468158 93.7931508,125.51955 C93.7931508,124.570942 94.5668329,123.801887 95.521663,123.801887 L113.276019,123.801887 L113.276019,115.733681 L40.4570245,115.733681 L40.4570245,119.640792 C40.4570245,121.93536 42.3099896,123.801887 44.5874774,123.801887 L87.4552725,123.801887 C88.4101027,123.801887 89.1837848,124.570942 89.1837848,125.51955 C89.1837848,126.468158 88.4101027,127.237213 87.4552725,127.237213 L44.5874774,127.237213 C40.4037863,127.237213 37,123.829599 37,119.640792 L37,115.282966 C37,113.637445 38.3417864,112.298355 39.9912481,112.298584 L45.3411087,112.298584 C44.077451,110.710548 43.3252025,108.717143 43.3252025,106.59663 L43.3252025,50.2320946 C43.3252025,45.1413998 47.4927608,41 52.6156101,41 L132.665778,41 C137.788627,41 141.956416,45.1413998 141.956416,50.2320946 L141.956416,72.4403309 L148.569243,72.4403309 Z M113.276019,112.298355 L113.276249,112.298355 L113.276249,109.044415 L53.2039957,109.044415 C51.5026787,109.044415 50.1187166,107.66891 50.1187166,105.978501 L50.1187166,50.7659442 C50.1187166,49.0753059 51.5026787,47.7000305 53.2039957,47.7000305 C55.6070887,47.7000305 131.607237,47.7000305 132.078084,47.7000305 C133.77917,47.7000305 135.163132,49.0755349 135.163132,50.7659442 C135.163132,53.4022133 135.163132,70.0383511 135.163132,72.44056 L138.499622,72.44056 L138.499622,50.2320946 C138.499622,47.0356384 135.882655,44.4353258 132.666008,44.4353258 L52.6158406,44.4353258 C49.3991945,44.4353258 46.7824575,47.0356384 46.7824575,50.2320946 L46.7824575,106.596401 C46.7824575,109.370542 48.8317816,111.799317 51.5702059,112.298355 L113.276019,112.298355 Z M131.705878,51.1351273 L62.394841,51.1351273 L62.394841,55.6956368 L131.705878,55.6956368 L131.705878,51.1351273 Z M58.9378165,51.1351273 L53.5755106,51.1351273 L53.5755106,55.6956368 L58.9378165,55.6956368 L58.9378165,51.1351273 Z M113.276019,78.8309531 C113.276019,75.3072249 116.161021,72.4403309 119.707237,72.4403309 L131.705878,72.4403309 L131.705878,59.1309626 L53.5755106,59.1309626 L53.5755106,105.60886 L113.276019,105.60886 L113.276019,78.8309531 Z M116.733043,85.5744977 L116.733043,89.0139459 L120.208736,89.0139459 L120.208736,85.5744977 L116.733043,85.5744977 Z M151.543206,137.609149 L151.543206,132.686327 L116.733043,132.686327 L116.733043,137.609149 C116.733043,139.238867 118.067224,140.564674 119.707006,140.564674 L148.569243,140.564674 C150.209025,140.564674 151.543206,139.238867 151.543206,137.609149 Z M151.543206,129.251001 L151.543206,92.4492717 L116.733043,92.4492717 C116.733043,106.456469 116.733043,115.229146 116.733043,129.251001 L151.543206,129.251001 Z M151.543206,89.0139459 L151.543206,85.5744977 L123.66576,85.5744977 L123.66576,89.0139459 L151.543206,89.0139459 Z M151.543206,82.1391718 L151.542976,78.8309531 C151.542976,77.2014635 150.208795,75.8756568 148.569013,75.8756568 L119.707006,75.8756568 C118.067224,75.8756568 116.733043,77.2014635 116.733043,78.8309531 L116.733043,82.1391718 C118.30622,82.1391718 149.778971,82.1391718 151.543206,82.1391718 Z M132.696668,138 C131.759429,138 131,137.3284 131,136.5 C131,135.6716 131.759429,135 132.696668,135 L136.303332,135 C137.240571,135 138,135.6716 138,136.5 C138,137.3284 137.240571,138 136.303332,138 L132.696668,138 Z" id="ic-web" fill="#FFFFFF"/>
                    </g>
                </g>
            </g>
        </g>
    </g>
</svg>