<?xml version="1.0" encoding="UTF-8"?>
<svg width="158px" height="146px" viewBox="0 0 158 146" version="1.1" xmlns="http://www.w3.org/2000/svg" xmlns:xlink="http://www.w3.org/1999/xlink">
    <!-- Generator: Sketch 52.1 (67048) - http://www.bohemiancoding.com/sketch -->
    <title>ic-servicos-02</title>
    <desc>Created with Sketch.</desc>
    <g id="Telas" stroke="none" stroke-width="1" fill="none" fill-rule="evenodd">
        <g id="Index" transform="translate(-739.000000, -2027.000000)">
            <g id="&gt;-servicos" transform="translate(-128.000000, 1630.000000)">
                <g id="servico-02" transform="translate(867.000000, 397.000000)">
                    <g id="ic-servicos-02">
                        <circle id="img" fill="#E60B65" fill-rule="nonzero" cx="44.5" cy="44.5" r="44.5"/>
                        <path d="M147.921745,62.8343656 C145.384888,62.8343656 143.321157,64.8980999 143.321157,67.4347173 C143.321157,69.971579 145.384888,72.0353133 147.921745,72.0353133 L149.875805,72.0353133 C152.409731,72.0323822 154.473218,69.9688922 154.476394,67.4356944 C154.473218,64.9005425 152.409731,62.8372967 149.876538,62.8343656 L147.921745,62.8343656 Z M104.931705,33.5234275 C101.321825,33.5275799 98.3819423,36.467467 98.3777899,40.0773533 L98.3777899,73.2969049 L99.0702597,73.9893758 L101.024319,73.9893758 L101.716789,73.2969049 L101.716789,40.0778418 C101.718743,38.3072169 103.161572,36.8643859 104.933171,36.8621876 L110.794616,36.8621876 C111.126562,36.8621876 111.451669,36.9967737 111.686644,37.2317497 L116.976772,42.5216412 L117.466019,42.7243752 L127.571682,42.7243752 L128.06093,42.5216412 L133.351301,37.2317497 C133.589208,36.9933541 133.906254,36.8621876 134.243329,36.8621876 L140.105508,36.8621876 C141.87613,36.8643859 143.318958,38.3072169 143.321157,40.0788188 L143.321157,60.6702413 L144.361938,61.268673 C144.9186,60.9445429 145.51752,60.6980867 146.141597,60.5361438 L146.660156,59.8659003 L146.660156,40.0778418 C146.655759,36.467467 143.715633,33.5275799 140.10624,33.5234275 L104.931705,33.5234275 Z M110.102146,63.5265922 L110.102146,73.2969049 L110.794616,73.9893758 L114.702735,73.9893758 L115.395205,73.2969049 L115.395205,69.3887799 C115.395205,68.6931336 115.960905,68.1271882 116.656795,68.1271882 L126.427092,68.1271882 L127.119562,67.4347173 L127.119562,63.5265922 L126.427092,62.8343656 L110.794616,62.8343656 L110.102146,63.5265922 Z M147.921745,74.5587408 C145.384888,74.5587408 143.321157,76.6224751 143.321157,79.1590926 C143.321157,81.6959542 145.384888,83.7596885 147.921745,83.7596885 L149.875805,83.7596885 C152.412663,83.7596885 154.476394,81.6959542 154.476394,79.1590926 C154.476394,76.6224751 152.412663,74.5587408 149.875805,74.5587408 L147.921745,74.5587408 Z M114.097221,82.4692745 C113.146571,84.1839644 111.889378,85.6761354 110.361059,86.9040194 L110.102146,87.4438292 L110.102146,88.9294052 L110.794616,89.6218762 L114.702735,89.6218762 L115.395205,88.9294052 L115.395205,82.8048847 L114.097221,82.4692745 Z M147.921745,86.2831161 C145.384888,86.2831161 143.321157,88.3468503 143.321157,90.8834678 C143.321157,93.4203295 145.384888,95.4840638 147.921745,95.4840638 L149.875805,95.4840638 C152.409731,95.4813769 154.473218,93.4178869 154.476394,90.8844448 C154.473218,88.3492929 152.409731,86.2860471 149.876538,86.2831161 L147.921745,86.2831161 Z M117.918384,71.3428424 L117.918384,96.7456554 L118.610854,97.4381263 L134.243329,97.4381263 L134.935799,96.7456554 L134.935799,71.3428424 L134.243329,70.6506157 L118.610854,70.6506157 L117.918384,71.3428424 Z M93.4601551,98.2776404 L93.4139904,99.2058201 C93.8299608,99.7138764 94.2234595,100.248801 94.5839835,100.796183 L95.8546107,100.415141 L95.8546107,97.5553701 L94.6724047,97.0656331 L93.4601551,98.2776404 Z M147.921745,98.0074913 C145.384888,98.0074913 143.321157,100.071226 143.321157,102.607843 C143.321157,105.144705 145.384888,107.208439 147.921745,107.208439 L149.875805,107.208439 C152.409731,107.205752 154.473218,105.142262 154.476394,102.60882 C154.473218,100.073424 152.409731,98.0101781 149.876538,98.0074913 L147.921745,98.0074913 Z M106.625875,89.0996529 C106.021826,89.345132 105.39384,89.5525069 104.759015,89.7168924 L104.239968,90.3871359 L104.239968,114.332218 L104.932438,115.024689 L140.105508,115.024689 L140.797978,114.332218 L140.797978,40.0778418 L140.105508,39.3856151 L135.052554,39.3856151 L134.563307,39.5883491 L129.273179,44.8782407 C129.038204,45.1132167 128.713097,45.2478027 128.381151,45.2478027 L116.656795,45.2478027 C116.319719,45.2478027 116.002673,45.1166363 115.764766,44.8782407 L110.474395,39.5883491 L109.985147,39.3856151 L104.932438,39.3856151 L104.239968,40.0778418 L104.239968,73.2969049 L104.932438,73.9893758 L106.886497,73.9893758 L107.578967,73.2969049 L107.578967,61.5725297 C107.578967,60.8768834 108.144667,60.3109381 108.840557,60.3109381 L128.381151,60.3109381 C129.076796,60.3109381 129.642741,60.8768834 129.642741,61.572774 L129.642741,67.4347173 L130.335211,68.1271882 L136.197389,68.1271882 C136.893034,68.1271882 137.458978,68.6931336 137.458978,69.3890241 L137.458978,98.6997179 C137.458978,99.3953642 136.893034,99.9615538 136.197389,99.9615538 L116.656795,99.9615538 C115.960905,99.9615538 115.395205,99.3956085 115.395205,98.6997179 L115.395205,92.8375303 L114.702735,92.1453037 L108.840557,92.1453037 C108.144667,92.1453037 107.578967,91.5793583 107.578967,90.8834678 L107.578967,89.741074 L106.625875,89.0996529 Z M98.5805236,93.1575081 L98.3777899,93.6470007 L98.3777899,114.332218 C98.3819423,117.942593 101.321825,120.882724 104.931705,120.886877 L140.105508,120.886877 C143.715633,120.882724 146.655759,117.942593 146.660156,114.332951 L146.660156,110.176904 L146.141597,109.506661 C145.51752,109.344962 144.918845,109.098506 144.361938,108.774376 L143.321157,109.372808 L143.321157,114.332218 C143.318958,116.103087 141.87613,117.546163 140.104775,117.548117 L104.932438,117.548117 C103.161572,117.546163 101.718743,116.103087 101.716789,114.33173 L101.716789,91.6929382 L100.534827,91.2034455 L98.5805236,93.1575081 Z M91.5739992,76.7155373 L64.2171672,104.072657 L64.2171672,105.051398 L94.6724047,135.506928 L95.651877,135.506928 L106.566276,124.592024 L106.077028,123.410304 L104.932438,123.410304 C101.806431,123.408594 98.941536,121.830445 97.2691054,119.188552 L96.0534362,119.272821 C95.3042987,120.92376 94.3260477,122.458187 93.1457958,123.834092 L92.6626546,124.397839 L90.7466993,122.755938 L91.2295962,122.192191 C93.9669892,118.998764 95.3856364,114.925276 95.2244265,110.722088 C95.0629723,106.519143 93.3360723,102.566563 90.3617496,99.592236 C90.1235986,99.3538404 89.9924324,99.0367937 89.9924324,98.6997179 C89.9924324,98.3628864 90.1235986,98.0458398 90.3617496,97.8076884 L100.132291,88.0373757 C100.370442,87.7992243 100.687244,87.6678136 101.024319,87.6678136 C107.098757,87.6599974 112.247704,83.3087886 113.268211,77.321541 L112.585756,76.5128034 L92.0632468,76.5128034 L91.5739992,76.7155373 Z M90.8514857,144.215452 L94.8421636,140.224768 L94.8421636,139.245783 L60.4788073,104.881883 L59.499335,104.881883 L43.7840563,120.597187 L42,118.812639 L59.0967987,101.715813 C59.335194,101.477662 59.6519959,101.346251 59.9890711,101.346251 C60.3261464,101.346251 60.6429482,101.477662 60.8810992,101.715813 L61.4536387,102.28811 L62.4328667,102.287865 L90.3617496,74.3589379 C90.6001448,74.1207866 90.9169467,73.9893758 91.254022,73.9893758 L95.1621408,73.9893758 L95.8546107,73.2969049 L95.8546107,40.0778418 C95.8599843,35.0783728 99.9327327,31.0056179 104.933171,31 L140.105508,31 C145.104969,31.0056179 149.177717,35.0783728 149.183335,40.0788188 L149.183335,59.6184672 L149.876293,60.3109381 C151.927567,60.3109381 153.876742,61.1927088 155.227974,62.7303118 C157.819301,65.6787479 157.528634,70.1855489 154.580447,72.7771243 L154.580691,73.8174183 C156.118292,75.1666985 156.999817,77.1136776 156.999573,79.1590926 C156.999817,81.2047518 156.118292,83.1517308 154.580691,84.501011 L154.580691,85.5415493 C154.811515,85.7445276 155.031102,85.9641153 155.233592,86.1946947 C156.486144,87.6216489 157.107779,89.4506514 156.984673,91.3453593 C156.861323,93.2398229 156.007643,94.9730764 154.580691,96.2253862 L154.580447,97.2656803 C156.119269,98.6181358 157.001038,100.569023 156.999573,102.617613 C156.996886,106.540394 153.803953,109.731867 149.881667,109.731867 C149.881423,109.731867 149.183335,110.424093 149.183335,110.424093 L149.183335,114.332218 C149.177717,119.331687 145.104969,123.404442 140.104775,123.410304 L111.603841,123.410304 L111.114594,123.613283 L97.4361775,137.29172 L97.4361775,138.270461 L98.0079841,138.843002 C98.2466237,139.081397 98.3777899,139.398444 98.3777899,139.735031 C98.3777899,140.072107 98.2466237,140.388909 98.0082284,140.627305 L92.635542,146 L90.8514857,144.215452 Z" id="ic-apps" stroke="#FFFFFF" stroke-width="0.5" fill="#FFFFFF" transform="translate(99.500000, 88.500000) scale(-1, 1) translate(-99.500000, -88.500000) "/>
                    </g>
                </g>
            </g>
        </g>
    </g>
</svg>