<?xml version="1.0" encoding="UTF-8"?>
<!-- Generator: Adobe Illustrator 27.9.6, SVG Export Plug-In . SVG Version: 9.03 Build 54986)  -->
<svg version="1.1" id="Camada_2_00000163050230200286161790000014344219256852597175_" xmlns="http://www.w3.org/2000/svg" xmlns:xlink="http://www.w3.org/1999/xlink" x="0px" y="0px" viewBox="0 0 299.6 359.5" style="enable-background:new 0 0 299.6 359.5;" xml:space="preserve">
<style type="text/css">
	.st0{fill:#FF1A4F;}
	.st1{fill:#200042;}
</style>
<circle class="st0" cx="149.7" cy="137.2" r="21.4"/>
<path class="st0" d="M149.4,58.2c-44.1,0-79.9,35.8-79.9,79.9c0,44.1,35.8,79.9,79.9,79.9s79.9-35.8,79.9-79.9  C229.3,94,193.5,58.2,149.4,58.2z M149.4,189.3c-28.2,0-51.1-22.9-51.1-51.1c0-28.2,22.9-51.1,51.1-51.1s51.1,22.9,51.1,51.1  C200.5,166.4,177.6,189.3,149.4,189.3z"/>
<g id="Camada_1-2">
	<g>
		<path class="st1" d="M280.6,107.9c-2.1,0-4.2,0-6.4,0c-8.3,0-8.3,0-11-7.8c-4.5-13.4-11.1-25.6-19.8-36.6    c5.6-5.8,11.4-10.5,20.1-11.1c9.9-0.7,19.7-2.8,29.6-4.2c3.3-0.5,5.8-1.8,6.3-5.3c0.5-3.5-1.6-5.5-4.5-6.9c-6-3-12.1-5.9-18-9.1    c-1.6-0.9-3.2-2.4-4.1-4c-3.3-6.1-6.4-12.4-9.4-18.7c-1.4-2.9-3.5-4.6-6.8-4.1s-4.7,2.8-5.1,6c-1.7,12-3.4,23.9-5.2,35.9    c-0.2,1.3-0.5,2.8-1.4,3.7c-3,3-6.2,5.6-9.5,8.5c-1.1-1.1-2-1.9-2.9-2.8C196.1,17,143.2,8.4,98.2,30.1    c-31.9,15.4-52.9,40.5-63.2,74.4c-0.8,2.6-1.8,3.6-4.6,3.4c-3.9-0.2-7.7-0.1-11.6-0.1C7.6,108,0,115.6,0,126.8    c0,51.3,0,102.6,0,153.8c0,11.4,7.6,18.9,19.1,18.9c10.7,0,21.5,0,32.2,0c12.8,0,25.7,0,39.3,0c-5.3,8-10.2,15.4-15.2,22.7    c-0.5,0.8-2.1,1.2-3.2,1.2c-4.2,0.1-8.5,0-12.7,0.1c-9.6,0.2-17.2,7.8-17.5,17.4c-0.1,3.2,0,6.5,0,9.7c0,7.1,1.7,8.7,8.9,8.7    c66,0,132,0,198,0c0.8,0,1.5,0,2.2,0c4.2-0.2,6.4-2.4,6.5-6.6c0.1-4,0.1-8,0-12c-0.3-9.6-8-17.1-17.6-17.3    c-4.1-0.1-8.2,0.2-12.4-0.1c-1.4-0.1-3.3-1.1-4.1-2.2c-4-5.6-7.7-11.3-11.5-17c-0.9-1.4-1.7-2.8-2.8-4.6c23.9,0,47.1,0,70.3,0    c13,0,20.1-7.2,20.1-20.2c0-37.3,0-74.6,0-111.9c0-13.6,0-27.2,0-40.8C299.5,115.5,291.8,108,280.6,107.9L280.6,107.9z     M260.6,27.2c2.7,5.2,6.1,9.5,12.2,10.9c-0.1,0.3-0.2,0.6-0.4,0.9c-4.4,0.6-8.8,1.2-13.7,1.9C259.5,35.9,260,31.6,260.6,27.2    L260.6,27.2z M79,56.4c47.2-40.8,113.1-30.7,147.1,6c-4.4,3.9-8.7,7.7-13,11.6c-38.7-38-98.2-33.7-131.6,2.4    c-32.8,35.5-32.7,89.3,0.2,124.6c32.3,34.7,86.3,38.5,123.5,8.9S252,125,220.7,82.9c0.7-0.4,1.3-0.6,1.8-1.1    c3.8-3.4,7.6-6.8,11.5-10.2c27.2,30.6,36.6,92.5-4.1,138.2c-41.2,46.2-113.5,47.8-157.1,3.5C29.1,169.1,31.8,97.2,79,56.4L79,56.4    z M144.4,140.4c1.8,3.8,6.1,4.6,9.7,1.5c4-3.4,7.8-6.9,12.1-10.6c3.2,8.7,0.1,17.6-7.3,21.9c-7.7,4.5-17.2,2.8-23-4    c-5.5-6.6-5.5-16.1-0.1-22.8c5.5-6.7,14.6-8.5,22.3-4.1c-4,3.5-7.9,6.9-11.7,10.3C144.1,134.9,142.9,137.3,144.4,140.4    L144.4,140.4z M140.3,109.1c-16.5,5.1-25.4,22.9-19.7,39.2c5.6,15.9,23.4,24.2,39.3,18.3c16.2-6.1,24.2-24.3,17.3-40.2    c-1.4-3.2-0.7-4.6,1.6-6.4c3.5-2.8,6.8-5.8,10.2-8.8c11.7,14.5,13.2,43-6.5,61.6c-18.7,17.7-48.5,17.2-66.9-1.3    c-18.2-18.3-18.4-48.3-0.4-66.9c17.8-18.4,47.6-19.7,66-2.6c-4.6,4-9,7.9-13.4,11.8C159.2,107.9,150.1,106.1,140.3,109.1    L140.3,109.1z M190.6,93.8c-28.2-24.8-66.5-18.6-86.6,4.3c-20.5,23.5-20.2,57.8,0.8,80.9c20.5,22.5,55.2,25.9,79.9,8    c24.6-17.9,34.2-54,13.7-84.2c4.3-3.8,8.7-7.7,13.1-11.6c20.1,24,23.9,69.9-7.3,100.8c-30.6,30.3-80,29.7-109.9-1.2    C64.4,159.9,65.5,110.8,96.9,81c31.8-30,79.7-26.4,106.9,1.1C199.4,86,195,89.9,190.6,93.8L190.6,93.8z M235,335.5    c9.9,0,11.2,1.4,10.4,11.7H53.9c0-2-0.1-3.9,0-5.8c0.2-3.6,2.4-5.7,6-5.9c1.1-0.1,2.2,0,3.4,0C120.6,335.5,177.8,335.5,235,335.5    L235,335.5z M210.3,323.3H89.2c5.2-7.8,10.1-15.3,15.2-22.7c0.5-0.7,1.9-1.1,2.9-1.1c28.3-0.1,56.6-0.1,85,0c1,0,2.4,0.4,2.9,1.1    C200.2,308,205.1,315.5,210.3,323.3L210.3,323.3z M287.6,278.6c0,7.4-1.6,9-9,9c-85.9,0-171.7,0-257.6,0c-7.4,0-9-1.6-9-9    c0-50,0-100.1,0-150.1c0-6.9,1.7-8.7,8.6-8.7c3.5,0,7,0,10.4,0c-4.9,51.6,12.6,93,56.7,120c41,25.1,84.2,25,125.1-0.5    c43.5-27.2,60.7-68.2,55.9-119.4c4.5,0,9.3-0.5,14,0.2c1.8,0.3,3.5,3,4.8,4.9c0.6,0.9,0.2,2.4,0.2,3.7    C287.5,178.7,287.5,228.7,287.6,278.6L287.6,278.6z"/>
		<path class="st1" d="M70.8,263.6c-6.6,0-13.2,0-19.8,0s-13.2,0-19.8,0c-4.4,0-7.1,2.3-7.1,5.9s2.6,6,7,6c13.2,0,26.5,0,39.7,0    c4.4,0,7.1-2.3,7.1-6C77.9,266,75.2,263.7,70.8,263.6z"/>
		<path class="st1" d="M268.5,263.6c-13.2,0-26.4,0-39.7,0c-4.4,0-7.1,2.3-7.1,6c0,3.6,2.7,6,7.1,6c6.5,0,13,0,19.5,0s13.5,0,20.2,0    c4.4,0,7.1-2.4,7.1-6C275.6,266,272.9,263.7,268.5,263.6L268.5,263.6z"/>
		<path class="st1" d="M42.5,251.6c3.7,0.1,7.5,0,11.2,0c3.9,0,7.7,0.1,11.6,0c3.9-0.1,6.4-2.4,6.5-5.8c0.1-3.5-2.5-6.1-6.6-6.1    c-7.6-0.1-15.2-0.1-22.8,0c-3.9,0-6.4,2.4-6.5,5.8C35.9,249,38.5,251.5,42.5,251.6L42.5,251.6z"/>
		<path class="st1" d="M269.1,239.7c-7.7-0.1-15.5-0.1-23.2,0c-3.8,0.1-6.3,2.6-6.3,6c0,3.4,2.6,5.8,6.4,5.9c3.7,0.1,7.5,0,11.2,0    c4,0,8,0.1,12,0c3.8-0.1,6.3-2.6,6.3-6S273,239.7,269.1,239.7L269.1,239.7z"/>
	</g>
</g>
</svg>