<?xml version="1.0" encoding="UTF-8"?>
<!-- Generator: Adobe Illustrator 27.9.6, SVG Export Plug-In . SVG Version: 9.03 Build 54986)  -->
<svg version="1.1" id="Camada_2_00000154427911466035631950000001203921975272012189_" xmlns="http://www.w3.org/2000/svg" xmlns:xlink="http://www.w3.org/1999/xlink" x="0px" y="0px" viewBox="0 0 359.5 366.2" style="enable-background:new 0 0 359.5 366.2;" xml:space="preserve">
<style type="text/css">
	.st0{fill:#FF1A4F;}
	.st1{fill:#240144;}
</style>
<polygon class="st0" points="138.6,41.3 138.6,69.3 169.5,55.3 "/>
<path class="st0" d="M258.4,195.9v94.4h94.4v-94.4H258.4z M303,263.1c-9.4,0-17-7.6-17-17c0-9.4,7.6-17,17-17s17,7.6,17,17  C320,255.5,312.4,263.1,303,263.1z"/>
<g id="Camada_1-2">
	<g>
		<path class="st1" d="M208.6,318.1c-3.6,0-7.1,0-10.9,0c0-7.6,0-14.8,0-21.9c0-12.1,0-24.2,0-36.4c0-3.9-2.3-6.4-5.8-6.5    c-3.6-0.1-6,2.4-6.1,6.5c-0.1,2,0,4,0,6c0,17.2,0,34.5,0,52H30.3V198.1c1.9,0,3.5,0,5.2,0c14.6,0,29.2,0,43.8,0    c4,0,6.6-2.6,6.5-6.2c-0.1-3.4-2.6-5.6-6.5-5.8c-0.8,0-1.5,0-2.2,0c-16.7,0-33.4,0-50.2,0c-7.2,0-8.8,1.6-8.8,8.8    c0,39.6,0,79.3,0,118.9v4.4c-4.2,0-7.8-0.1-11.5,0c-4.2,0.1-6.4,2.4-6.5,6.6c-0.1,4.1-0.1,8.2,0,12.4c0.4,15.8,13.3,28.9,29.1,29    c52.4,0.2,104.8,0.1,157.2,0c14.2,0,26.3-10.3,28.6-24.4c0.9-5.4,0.6-11,0.7-16.4C215.7,320.4,213.4,318.2,208.6,318.1    L208.6,318.1z M174,353.9c-0.8-4.5,1.4-11.6-6.3-11.5c-7.4,0.1-5.5,6.8-6,11.6H53.9c0-1.8,0.1-3.6,0-5.4c-0.2-3.9-2.5-6.4-5.9-6.4    s-5.8,2.5-6,6.3c-0.1,1.7,0,3.5,0,5.3c-5.4,0-10.7,0.7-15.7-0.1c-8.5-1.4-14-8.7-14.2-17.3c0-1.9,0-3.7,0-5.8h191.4    C205.2,345.4,198.3,356.9,174,353.9L174,353.9z"/>
		<path class="st1" d="M204.6,166.8c-0.8-1.4-2.6-3-3.9-3c-2.1,0-5.1,0.7-6.1,2.2c-1.1,1.7-1.1,5-0.2,6.8c4.7,8.8,9.8,17.4,14.8,26    c3.7,6.4,7.3,12.7,11.1,19.3c-14.9,5.6-29.5,10.9-44,16.6c-26.8,10.4-54.6,18.3-78.9,34.4c-5.6,3.7-12.4,1.5-15.9-4.2    c-4.2-6.8-8.1-13.8-12-20.8c-2.7-5-2.1-11.2,2.4-14.3c7.2-5,14.9-9.2,22.6-13.8c0.8,1.3,1.2,2.1,1.7,2.8c4.4,7.7,8.8,15.4,13.3,23    c1.9,3.2,5.5,4.1,8.4,2.3c2.8-1.7,3.6-4.9,2-8.2c-0.8-1.7-1.8-3.3-2.8-4.9c-4.2-7.2-8.3-14.4-12.5-21.8    c25.1-20.7,49.9-41.2,75.1-62.1c1,1.6,1.6,2.8,2.4,3.9c2.1,3.2,5.4,4.1,8.4,2.4c2.9-1.7,3.8-5.1,1.9-8.5c-1.5-2.9-3.2-5.6-4.9-8.4    c-3.2-5.4-6.6-6-11.5-1.9c-11.9,9.9-23.8,19.8-35.8,29.6c-23.5,19.1-45.4,40.3-73,53.8c-0.3,0.2-0.6,0.4-0.9,0.6    c-6.3,4.7-10.4,11.1-9.7,18.8c0.6,6.1-1.7,8.6-6.4,11.4c-7.2,4.2-9.7,12.9-6.9,20.7c2.7,7.7,9.8,12.7,17.9,11.8    c3.8-0.4,7.6-2.3,11.1-4c2.1-1,3.3-1.1,5.2,0.4c6.4,5.1,13.7,6.5,21.5,4c3.5-1.1,6.7-3.1,10.3-4.8c3.8,6.5,7.3,13.3,11.5,19.6    c2,3,4.7,5.9,7.8,7.8c6.6,4,15.2,2.4,20.7-3c5.7-5.6,7.1-14.1,3.1-21.4c-3.5-6.5-7.2-12.8-11-19.4c10.3-3.9,20.3-7.6,30.3-11.4    c19.4-7.3,38.7-14.5,58.1-21.9c5.1-1.9,6.7-5.2,4.2-9.6C224.3,200.6,214.5,183.7,204.6,166.8L204.6,166.8z M57,268.7    c-1.5-1-2.9-3.6-2.9-5.5c0.1-4.8,4.7-5.4,8-7.8c2.1,3.6,4,6.9,5.9,10.3C64.4,267.8,61.2,271.3,57,268.7L57,268.7z M139.6,293.7    c-3.1,1.8-6.4,0.8-8.5-2.7c-3.8-6.5-7.6-13.1-11.6-20.2c3.5-2,6.6-3.8,10.1-5.8c0.8,1.3,1.6,2.5,2.4,3.7    c3.1,5.4,6.3,10.7,9.4,16.2C143.4,288.5,142.6,292,139.6,293.7L139.6,293.7z"/>
		<path class="st1" d="M257.5,42c3.4,0,5.9-2.5,6-6.3c0.1-3.4,0-6.8,0-10.1c0-5.4,2.1-7.6,7.4-7.6c23,0,45.9,0,68.9,0    c5.5,0,7.6,2.1,7.6,7.8c0,22.9,0,45.8,0,68.6c0,5.6-2.1,7.6-7.8,7.6c-22.8,0-45.7,0-68.5,0c-5.6,0-7.6-2.1-7.6-7.8    c0-10.4,0-20.8,0-31.1c0-0.9,0-1.8,0-2.6c-0.2-3.9-2.5-6.4-5.9-6.5c-3.5-0.1-6.1,2.5-6.1,6.6c-0.1,11.4-0.1,22.7,0,34.1    c0,11.7,7.5,19.2,19.2,19.3c23.2,0,46.4,0,69.6,0c11.5,0,19-7.6,19-19c0-23.4,0-46.8,0-70.1c0-11.2-7.6-18.8-18.8-18.9    c-11.7,0-23.5,0-35.2,0c-12,0-24-0.1-35.9,0c-10,0.1-17.7,7.8-17.9,17.9c-0.1,3.9-0.1,7.8,0,11.6C251.7,39.4,254.1,42,257.5,42    L257.5,42z"/>
		<path class="st1" d="M359.4,270.6c-0.1-3.9-2.5-6.4-5.9-6.4c-3.5,0-6,2.5-6,6.6c-0.1,3.1,0,6.2,0,9.4c0,5.9-2,8-7.8,8    c-22.7,0-45.4,0-68.1,0c-5.9,0-8-2-8-7.8c0-22.9,0-45.8,0-68.6c0-5.6,2.1-7.6,7.7-7.6c22.8,0,45.7,0,68.5,0c5.6,0,7.6,2.1,7.6,7.7    c0,10.4,0,20.8,0,31.1c0,0.9,0,1.8,0,2.6c0.2,3.9,2.5,6.4,5.8,6.5c3.5,0.1,6.1-2.6,6.1-6.6c0.1-11.4,0-22.8,0-34.1    c0-11.8-7.5-19.2-19.1-19.3c-11.6,0-23.2,0-34.8,0c-12,0-24-0.1-35.9,0c-9.9,0.1-17.8,7.7-17.9,17.5c-0.1,24.4-0.1,48.8,0,73.1    c0.1,9.5,7.8,17.2,17.2,17.3c24.5,0.2,48.9,0.2,73.4,0c9.3-0.1,16.7-7.8,17.1-17.1C359.5,278.8,359.5,274.7,359.4,270.6    L359.4,270.6z"/>
		<path class="st1" d="M7.9,168.1c22.7,0,45.4,0,68.1,0c5.9,0,7.9-2,7.9-7.9c0-30.8,0-61.5,0-92.3c0-5.9-2-7.9-7.9-7.9    c-22.7,0-45.4,0-68.1,0c-5.9,0-7.8,2-7.8,7.9c0,15.3,0,30.5,0,45.8s0,31,0,46.5C0.1,166.1,2,168,7.9,168.1L7.9,168.1z M12.2,72.3    h59.4v83.6H12.2V72.3z"/>
		<path class="st1" d="M149.5,108c29.9,0,54.2-24.1,54.2-53.9c0-29.9-24.1-54.1-54-54.1C120.2-0.1,96,24.1,95.9,53.9    C95.8,83.5,120,108,149.5,108L149.5,108z M150.1,12c23,0.1,41.7,19,41.6,42.2c-0.1,23.2-19,42-42.4,41.8    c-22.8-0.1-41.5-19.1-41.5-42C107.9,30.7,126.7,12,150.1,12L150.1,12z"/>
		<path class="st1" d="M281.6,245.9c-0.1,13.3,10.6,24.2,23.9,24.2c13.1,0,23.9-10.6,24-23.6c0.2-13.3-10.5-24.3-23.7-24.4    C292.5,222,281.7,232.6,281.6,245.9L281.6,245.9z M317.5,246.1c0,6.6-5.3,11.9-11.9,12c-6.7,0.1-12.2-5.5-12.1-12.1    c0.1-6.5,5.5-11.8,12-11.8C312.1,234.1,317.5,239.6,317.5,246.1L317.5,246.1z"/>
		<path class="st1" d="M281.6,59.8c-0.2,4.1,1.9,5.3,12,6.7c0,4.7,0,9.4,0,14.1c0,1.2-0.1,2.5,0,3.8c0.3,3.5,3,5.9,6.2,5.7    c3.2-0.1,5.6-2.6,5.7-6.2c0.1-5.8,0-11.7,0-17.4c9.8-1.1,12-2.2,12-6.3s-2.1-5.2-12-6.3c0-1.5,0-2.7,0-3.9c0-5.7,2-7.7,7.6-7.7    c3.2,0,6.5,0.1,9.7,0c4-0.1,6.7-2.6,6.6-6.1c-0.1-3.4-2.6-5.8-6.5-5.8c-4-0.1-8-0.1-12,0c-9.6,0.3-17.1,7.9-17.4,17.6    c-0.1,2.1,0,4.2,0,6.2C284.1,54.5,281.8,55.7,281.6,59.8L281.6,59.8z"/>
		<path class="st1" d="M281.5,166.7c-0.8-3.6-3.9-5.3-8.2-4.5c-9.7,1.9-19.3,3.9-28.9,5.9c-3.5,0.7-5.7,3.5-5.3,6.6    c0.4,3.2,3,5.4,6.9,5.4c0.4,0,1.1,0,1.8-0.2c9.3-1.9,18.6-3.7,27.8-5.7C280.2,173.3,282.3,170.5,281.5,166.7L281.5,166.7z"/>
		<path class="st1" d="M210.4,132.1c0.8-0.4,2.7-0.9,3.6-2.1c6.3-8.2,12.5-16.4,18.6-24.8c2-2.7,1.1-6.1-1.5-7.9    c-2.8-1.9-5.8-1.8-7.7,0.8c-6.4,8.2-12.8,16.6-18.8,25.1C202,126.8,205,131.9,210.4,132.1L210.4,132.1z"/>
		<path class="st1" d="M222.9,153.6c2.1,2.8,5.5,3.4,8.6,1.1c7.9-5.8,15.8-11.7,23.5-17.7c1.4-1.1,2-2.9,3.4-5    c-1.5-1.9-2.5-4.3-4.2-5c-1.9-0.7-4.9-0.4-6.5,0.7c-7.9,5.6-15.6,11.5-23.3,17.4C221.3,147.4,220.8,150.8,222.9,153.6L222.9,153.6    z"/>
		<path class="st1" d="M53.4,108.1c-7.6-0.1-15.2-0.1-22.8,0c-4.1,0-6.6,2.6-6.6,6.1c0.1,3.4,2.6,5.7,6.5,5.8c3.7,0.1,7.5,0,11.2,0    s7.5,0,11.2,0c0.1,0,0.2,0,0.4,0c4-0.2,6.7-2.6,6.6-6.1C59.8,110.5,57.3,108.1,53.4,108.1L53.4,108.1z"/>
		<path class="st1" d="M53.6,132.1c-3.9-0.1-7.7,0-11.6,0s-7.7-0.1-11.6,0c-3.8,0.1-6.3,2.6-6.3,6s2.5,5.9,6.3,6    c7.7,0.1,15.5,0.1,23.2,0c3.8-0.1,6.3-2.6,6.3-6C59.9,134.6,57.4,132.2,53.6,132.1z"/>
		<path class="st1" d="M54.3,84.1c-4.2-0.2-8.5-0.2-12.7,0C38.3,84.3,36,86.9,36,90s2.2,5.7,5.5,6c2.2,0.2,4.5,0,6.7,0    c2,0,4,0.1,6,0c3.3-0.3,5.6-2.8,5.6-5.9S57.6,84.3,54.3,84.1L54.3,84.1z"/>
		<path class="st1" d="M131.8,70.9c0.1,6.1,4.1,8.7,9.5,6c11.4-5.6,22.7-11.3,34.1-17c2.5-1.3,4.8-3.2,4.1-6    c-0.5-2.1-2.2-4.6-4.1-5.6c-11.2-5.9-22.6-11.5-34-17.1c-5.4-2.6-9.4,0-9.5,6c-0.1,5.5,0,11,0,16.5S131.8,65.1,131.8,70.9    L131.8,70.9z M144.1,45.9c5.3,2.6,10.4,5.2,16.2,8.1c-5.7,2.9-10.8,5.4-16.2,8.2V45.9z"/>
	</g>
</g>
</svg>