<svg width="30" height="30" viewBox="0 0 30 30" fill="none" xmlns="http://www.w3.org/2000/svg">
<path d="M18.6151 0.448485C10.3924 -1.59252 2.17993 3.53113 0.356929 11.7867C0.210557 12.4511 0.152634 13.1351 0.0516607 13.8089C0.0391369 13.895 0.0172202 13.9796 0 14.0641V15.9392C0.0774911 16.4979 0.124455 17.0622 0.23717 17.6139C1.40423 23.3026 4.71052 27.1671 10.1599 29.1854C11.3552 29.6275 12.5997 29.8615 13.8717 29.9523C13.9367 29.957 14.0008 29.9836 14.065 30.0001H15.9405C16.4892 29.9241 17.0402 29.8631 17.5866 29.77C23.6575 28.7377 28.5418 23.9647 29.7159 17.9223C31.2508 10.0228 26.4315 2.38932 18.6151 0.449268V0.448485ZM17.8276 9.91319H22.4896V11.0433H17.8276V9.91319ZM15.1382 18.2517C14.8885 19.3693 14.0595 19.9789 13.0631 20.3303C12.469 20.54 11.8076 20.6308 11.1744 20.6457C9.40851 20.6864 7.64109 20.6606 5.87367 20.659C5.79774 20.659 5.72182 20.6465 5.6365 20.6387V9.15798C5.7226 9.15172 5.80635 9.13999 5.8901 9.13999C7.80312 9.1392 9.71691 9.13842 11.6299 9.13999C12.2264 9.13999 12.7899 9.28633 13.3183 9.55789C14.173 9.99771 14.6779 10.6786 14.717 11.6623C14.7601 12.7337 14.4118 13.6156 13.4654 14.2002C13.384 14.2503 13.3003 14.2981 13.1797 14.3685C13.3981 14.4749 13.586 14.5555 13.7637 14.6534C14.7108 15.1754 15.2603 15.9478 15.2336 17.0606C15.2243 17.4582 15.2235 17.8659 15.1374 18.251L15.1382 18.2517ZM19.4096 18.9835C20.3512 19.4249 21.4713 19.1392 22.0638 18.283C22.1875 18.1046 22.3119 18.0506 22.5162 18.0561C23.0516 18.0694 23.5878 18.0608 24.1561 18.0608C24.1381 18.1578 24.1326 18.2322 24.1099 18.301C23.6426 19.6855 22.6673 20.4931 21.249 20.7631C19.6248 21.073 18.165 20.7584 17.0441 19.471C14.9534 17.0692 15.9295 13.0608 19.1152 12.1788C21.3813 11.5512 23.7381 13.0271 24.2508 15.4054C24.3635 15.9298 24.3651 16.4792 24.4222 17.0645H18.3521C18.2002 17.7971 18.6714 18.6391 19.4096 18.985V18.9835Z" fill="#240144"/>
<path d="M11.3567 15.6146C10.3125 15.5286 9.25585 15.5951 8.18115 15.5951V18.6895C9.18932 18.6895 10.1756 18.7208 11.1587 18.6801C12.0377 18.6441 12.6451 18.097 12.7226 17.3739C12.8259 16.4113 12.3367 15.6952 11.3559 15.6146H11.3567Z" fill="#240144"/>
<path d="M11.2212 13.6901C11.7433 13.6588 12.1362 13.316 12.256 12.7565C12.4392 11.9003 11.9413 11.2085 11.0091 11.1522C10.0761 11.0958 9.13757 11.1397 8.1748 11.1397V13.7073C9.20176 13.7073 10.2146 13.7496 11.222 13.6901H11.2212Z" fill="#240144"/>
<path d="M20.1711 13.7841C19.231 13.7802 18.4177 14.5573 18.3379 15.5739H22.0019C21.9205 14.5604 21.1268 13.788 20.1711 13.7841Z" fill="#240144"/>
</svg>