<?xml version="1.0" encoding="utf-8"?>
<!-- Generator: Adobe Illustrator 27.9.6, SVG Export Plug-In . SVG Version: 9.03 Build 54986)  -->
<svg version="1.1" id="Camada_1" xmlns="http://www.w3.org/2000/svg" xmlns:xlink="http://www.w3.org/1999/xlink" x="0px" y="0px"
	 viewBox="0 0 30 30" style="enable-background:new 0 0 30 30;" xml:space="preserve">
<style type="text/css">
	.st0{fill:#240144;}
</style>
<path class="st0" d="M15,29.2c-2.7,0-5.2-0.7-7.4-2.1c-0.2-0.1-0.3-0.1-0.5,0c-1.6,0.7-3.2,1.4-4.8,2.1c-0.6,0.3-1.2,0-1.3-0.7
	c0-0.2,0-0.5,0.1-0.7c0.7-1.6,1.3-3.2,2-4.7c0.1-0.2,0.1-0.3,0-0.5c-3.7-6-2.5-13.7,2.8-18.3c3.1-2.6,6.6-3.7,10.6-3.3
	C22.8,1.5,27.9,6.4,29,12.7c1.1,6.3-2.3,12.6-8.1,15.2C19,28.7,17,29.2,15,29.2z M18.3,22.3c1.2,0,2-0.2,2.6-0.8
	c0.5-0.4,0.9-0.9,1.3-1.3c0.4-0.5,0.4-1.1-0.1-1.5c-0.5-0.6-1.1-1.1-1.6-1.6c-0.4-0.4-1-0.4-1.4,0c-0.3,0.3-0.6,0.6-0.9,0.9
	c-0.2,0.2-0.3,0.2-0.6,0.2c-0.4-0.1-0.9-0.2-1.2-0.4c-1.7-1-3.1-2.3-4.1-4c-0.2-0.4-0.3-0.8-0.4-1.3c-0.1-0.2,0-0.4,0.2-0.6
	c0.3-0.3,0.6-0.6,0.9-0.9c0.4-0.4,0.4-1,0-1.4c-0.5-0.6-1.1-1.1-1.6-1.6c-0.4-0.4-1-0.5-1.5-0.1c-0.4,0.3-0.7,0.6-1.1,1
	C8,9.5,7.7,10.4,7.7,11.4c0,1,0.3,2,0.7,2.9c1.5,2.9,3.8,5.2,6.6,6.9C16.1,21.9,17.3,22.2,18.3,22.3z"/>
</svg>
